<svg width="204" height="96" viewBox="0 0 204 96" fill="none" xmlns="http://www.w3.org/2000/svg">
<rect width="204" height="96" fill="white"/>
<path d="M16.756 62L7.396 35.18H12.724L20.068 57.392H19.024L26.368 35.18H31.696L22.372 62H16.756ZM41.7926 62.432C39.7766 62.432 38.0126 61.976 36.5006 61.064C34.9886 60.152 33.8126 58.916 32.9726 57.356C32.1326 55.796 31.7126 54.068 31.7126 52.172C31.7126 50.204 32.1326 48.464 32.9726 46.952C33.8366 45.416 35.0006 44.204 36.4646 43.316C37.9526 42.428 39.6086 41.984 41.4326 41.984C42.9686 41.984 44.3126 42.236 45.4646 42.74C46.6406 43.244 47.6366 43.94 48.4526 44.828C49.2686 45.716 49.8926 46.736 50.3246 47.888C50.7566 49.016 50.9726 50.24 50.9726 51.56C50.9726 51.896 50.9486 52.244 50.9006 52.604C50.8766 52.964 50.8166 53.276 50.7206 53.54H35.6006V49.94H48.0566L45.8246 51.632C46.0406 50.528 45.9806 49.544 45.6446 48.68C45.3326 47.816 44.8046 47.132 44.0606 46.628C43.3406 46.124 42.4646 45.872 41.4326 45.872C40.4486 45.872 39.5726 46.124 38.8046 46.628C38.0366 47.108 37.4486 47.828 37.0406 48.788C36.6566 49.724 36.5126 50.864 36.6086 52.208C36.5126 53.408 36.6686 54.476 37.0766 55.412C37.5086 56.324 38.1326 57.032 38.9486 57.536C39.7886 58.04 40.7486 58.292 41.8286 58.292C42.9086 58.292 43.8206 58.064 44.5646 57.608C45.3326 57.152 45.9326 56.54 46.3646 55.772L50.1806 57.644C49.7966 58.58 49.1966 59.408 48.3806 60.128C47.5646 60.848 46.5926 61.412 45.4646 61.82C44.3606 62.228 43.1366 62.432 41.7926 62.432ZM54.5476 62V34.748H59.2636V62H54.5476ZM69.5219 62L61.8179 42.416H66.9659L72.5459 57.824H70.6379L76.2539 42.416H81.4019L73.6979 62H69.5219ZM93.2329 62.432C91.3129 62.432 89.5609 61.988 87.9769 61.1C86.4169 60.212 85.1689 59 84.2329 57.464C83.3209 55.928 82.8649 54.176 82.8649 52.208C82.8649 50.24 83.3209 48.488 84.2329 46.952C85.1689 45.416 86.4169 44.204 87.9769 43.316C89.5369 42.428 91.2889 41.984 93.2329 41.984C95.1529 41.984 96.8929 42.428 98.4529 43.316C100.013 44.204 101.249 45.416 102.161 46.952C103.097 48.464 103.565 50.216 103.565 52.208C103.565 54.176 103.097 55.928 102.161 57.464C101.225 59 99.9769 60.212 98.4169 61.1C96.8569 61.988 95.1289 62.432 93.2329 62.432ZM93.2329 58.112C94.2889 58.112 95.2129 57.86 96.0049 57.356C96.8209 56.852 97.4569 56.156 97.9129 55.268C98.3929 54.356 98.6329 53.336 98.6329 52.208C98.6329 51.056 98.3929 50.048 97.9129 49.184C97.4569 48.296 96.8209 47.6 96.0049 47.096C95.2129 46.568 94.2889 46.304 93.2329 46.304C92.1529 46.304 91.2049 46.568 90.3889 47.096C89.5729 47.6 88.9249 48.296 88.4449 49.184C87.9889 50.048 87.7609 51.056 87.7609 52.208C87.7609 53.336 87.9889 54.356 88.4449 55.268C88.9249 56.156 89.5729 56.852 90.3889 57.356C91.2049 57.86 92.1529 58.112 93.2329 58.112ZM107.537 62V35.18H116.285C119.117 35.18 121.577 35.756 123.665 36.908C125.777 38.036 127.409 39.608 128.561 41.624C129.713 43.616 130.289 45.932 130.289 48.572C130.289 51.188 129.713 53.516 128.561 55.556C127.409 57.572 125.777 59.156 123.665 60.308C121.577 61.436 119.117 62 116.285 62H107.537ZM112.433 57.68H116.393C118.217 57.68 119.789 57.308 121.109 56.564C122.453 55.796 123.497 54.74 124.241 53.396C124.985 52.028 125.357 50.42 125.357 48.572C125.357 46.7 124.985 45.092 124.241 43.748C123.497 42.404 122.453 41.36 121.109 40.616C119.789 39.872 118.217 39.5 116.393 39.5H112.433V57.68ZM133.79 62V42.416H138.218V46.772L137.858 46.124C138.314 44.66 139.022 43.64 139.982 43.064C140.966 42.488 142.142 42.2 143.51 42.2H144.662V46.376H142.97C141.626 46.376 140.546 46.796 139.73 47.636C138.914 48.452 138.506 49.604 138.506 51.092V62H133.79ZM147.255 62V42.416H151.971V62H147.255ZM147.255 40.22V35.18H151.971V40.22H147.255ZM162.229 62L154.525 42.416H159.673L165.253 57.824H163.345L168.961 42.416H174.109L166.405 62H162.229ZM185.652 62.432C183.636 62.432 181.872 61.976 180.36 61.064C178.848 60.152 177.672 58.916 176.832 57.356C175.992 55.796 175.572 54.068 175.572 52.172C175.572 50.204 175.992 48.464 176.832 46.952C177.696 45.416 178.86 44.204 180.324 43.316C181.812 42.428 183.468 41.984 185.292 41.984C186.828 41.984 188.172 42.236 189.324 42.74C190.5 43.244 191.496 43.94 192.312 44.828C193.128 45.716 193.752 46.736 194.184 47.888C194.616 49.016 194.832 50.24 194.832 51.56C194.832 51.896 194.808 52.244 194.76 52.604C194.736 52.964 194.676 53.276 194.58 53.54H179.46V49.94H191.916L189.684 51.632C189.9 50.528 189.84 49.544 189.504 48.68C189.192 47.816 188.664 47.132 187.92 46.628C187.2 46.124 186.324 45.872 185.292 45.872C184.308 45.872 183.432 46.124 182.664 46.628C181.896 47.108 181.308 47.828 180.9 48.788C180.516 49.724 180.372 50.864 180.468 52.208C180.372 53.408 180.528 54.476 180.936 55.412C181.368 56.324 181.992 57.032 182.808 57.536C183.648 58.04 184.608 58.292 185.688 58.292C186.768 58.292 187.68 58.064 188.424 57.608C189.192 57.152 189.792 56.54 190.224 55.772L194.04 57.644C193.656 58.58 193.056 59.408 192.24 60.128C191.424 60.848 190.452 61.412 189.324 61.82C188.22 62.228 186.996 62.432 185.652 62.432Z" fill="black"/>
</svg>
