<?xml version="1.0" encoding="UTF-8"?>
<svg version="1.1" xmlns="http://www.w3.org/2000/svg" width="100" height="100">
<path d="M0 0 C1.94712891 -0.0299707 1.94712891 -0.0299707 3.93359375 -0.06054688 C12.74156339 -0.05610289 21.65074767 0.53686977 28.5625 6.5625 C34.125 16.7975 34.125 16.7975 34.125 22.4375 C34.88425781 22.40269531 35.64351563 22.36789063 36.42578125 22.33203125 C37.91658203 22.29142578 37.91658203 22.29142578 39.4375 22.25 C40.42363281 22.21519531 41.40976563 22.18039063 42.42578125 22.14453125 C45.125 22.4375 45.125 22.4375 46.9609375 23.7265625 C48.88049313 26.54792278 48.42443896 29.14367147 48.125 32.4375 C45.5595406 35.0029594 43.64813332 34.97796087 40.125 35.4375 C40.13547363 36.3661084 40.14594727 37.2947168 40.15673828 38.25146484 C40.19079204 41.6917569 40.21588493 45.13187027 40.23486328 48.57226562 C40.24493043 50.0622032 40.25858518 51.55212097 40.27587891 53.04199219 C40.30009653 55.18169028 40.31147564 57.32112753 40.3203125 59.4609375 C40.33078613 60.74919434 40.34125977 62.03745117 40.35205078 63.36474609 C40.125 66.4375 40.125 66.4375 38.125 68.4375 C35.41577199 68.63602102 32.83196821 68.71589477 30.125 68.6875 C29.01898438 68.69910156 29.01898438 68.69910156 27.890625 68.7109375 C22.3783196 68.6908196 22.3783196 68.6908196 20.125 66.4375 C20.125 64.4575 20.125 62.4775 20.125 60.4375 C6.925 60.4375 -6.275 60.4375 -19.875 60.4375 C-19.875 62.4175 -19.875 64.3975 -19.875 66.4375 C-22.43448999 68.99698999 -24.14707195 68.69818731 -27.640625 68.7109375 C-28.37796875 68.70320313 -29.1153125 68.69546875 -29.875 68.6875 C-30.98101563 68.69910156 -30.98101563 68.69910156 -32.109375 68.7109375 C-37.6216804 68.6908196 -37.6216804 68.6908196 -39.875 66.4375 C-40.10205078 63.36474609 -40.10205078 63.36474609 -40.0703125 59.4609375 C-40.06606766 58.43306625 -40.06606766 58.43306625 -40.06173706 57.38442993 C-40.05053281 55.19360973 -40.02542859 53.00319684 -40 50.8125 C-39.98997048 49.3281309 -39.98084458 47.8437554 -39.97265625 46.359375 C-39.95059294 42.71861739 -39.91606176 39.07809844 -39.875 35.4375 C-41.009375 35.128125 -42.14375 34.81875 -43.3125 34.5 C-46.875 33.4375 -46.875 33.4375 -47.875 32.4375 C-48.34234854 26.12829465 -48.34234854 26.12829465 -46.71484375 23.72265625 C-44.14192212 21.92543498 -42.29042567 22.14048498 -39.1875 22.25 C-37.69669922 22.29060547 -37.69669922 22.29060547 -36.17578125 22.33203125 C-35.03689453 22.38423828 -35.03689453 22.38423828 -33.875 22.4375 C-33.74609375 21.71691406 -33.6171875 20.99632813 -33.484375 20.25390625 C-32.27977503 14.68649227 -30.52674204 9.27801255 -26.6875 5 C-18.03448894 0.19277163 -9.77284706 -0.05306087 0 0 Z M-24.125 10.4375 C-27.06018307 15.46924241 -30.30344059 21.34933417 -29.48046875 27.28125 C-29.28066406 27.9928125 -29.08085937 28.704375 -28.875 29.4375 C-25.52755888 30.18614082 -22.42414825 30.56689738 -18.99633789 30.58276367 C-17.58445946 30.59233345 -17.58445946 30.59233345 -16.14405823 30.60209656 C-15.13874557 30.60320938 -14.13343292 30.6043222 -13.09765625 30.60546875 C-11.53149818 30.61046135 -11.53149818 30.61046135 -9.93370056 30.61555481 C-7.7289982 30.6206097 -5.52428822 30.62296358 -3.31958008 30.62280273 C0.04684071 30.62498983 3.412934 30.64316266 6.77929688 30.66210938 C8.92447805 30.66504349 11.06966078 30.66702817 13.21484375 30.66796875 C14.21813217 30.67515427 15.22142059 30.68233978 16.25511169 30.68974304 C21.28210208 30.67336639 25.4169323 30.43923452 30.125 28.4375 C29.50833301 21.34582964 27.74989072 14.20054286 22.75 8.9375 C11.01572653 2.23220088 -13.40741004 0.91075337 -24.125 10.4375 Z M-42.875 27.4375 C-42.545 28.4275 -42.215 29.4175 -41.875 30.4375 C-40.225 30.4375 -38.575 30.4375 -36.875 30.4375 C-36.545 29.1175 -36.215 27.7975 -35.875 26.4375 C-39.76959074 26.22668149 -39.76959074 26.22668149 -42.875 27.4375 Z M36.125 26.4375 C36.455 27.7575 36.785 29.0775 37.125 30.4375 C38.775 30.4375 40.425 30.4375 42.125 30.4375 C42.455 29.4475 42.785 28.4575 43.125 27.4375 C40.815 27.1075 38.505 26.7775 36.125 26.4375 Z M-32.875 33.4375 C-35.73085134 39.14920269 -36.26530665 41.13055124 -36.1875 47.1875 C-36.18363281 48.50234375 -36.17976563 49.8171875 -36.17578125 51.171875 C-36.21825076 54.52043101 -36.21825076 54.52043101 -33.875 56.4375 C-30.93405405 56.74531128 -30.93405405 56.74531128 -27.4375 56.69628906 C-26.77717773 56.6997937 -26.11685547 56.70329834 -25.43652344 56.70690918 C-23.24924268 56.71572681 -21.06228417 56.70987743 -18.875 56.703125 C-17.35807228 56.70447165 -15.84114499 56.70641217 -14.32421875 56.70892334 C-11.14318742 56.71187464 -7.96226831 56.70757684 -4.78125 56.69824219 C-0.69872098 56.68684757 3.38354509 56.69340702 7.46606445 56.70538712 C10.59897858 56.71260561 13.73183011 56.71031786 16.86474609 56.70513153 C18.37028026 56.703795 19.87582007 56.70544288 21.38134766 56.71009064 C23.48355212 56.71515579 25.58532758 56.70744627 27.6875 56.69628906 C28.88503906 56.69469788 30.08257812 56.69310669 31.31640625 56.69146729 C34.26214258 56.72739284 34.26214258 56.72739284 36.125 54.4375 C36.4850798 51.05718081 36.4850798 51.05718081 36.4375 47.1875 C36.46263672 45.23070312 36.46263672 45.23070312 36.48828125 43.234375 C36.30280868 38.89313819 36.30280868 38.89313819 33.125 33.4375 C11.345 33.4375 -10.435 33.4375 -32.875 33.4375 Z M-35.875 60.4375 C-35.215 61.7575 -34.555 63.0775 -33.875 64.4375 C-31.235 64.4375 -28.595 64.4375 -25.875 64.4375 C-25.215 63.1175 -24.555 61.7975 -23.875 60.4375 C-27.835 60.4375 -31.795 60.4375 -35.875 60.4375 Z M24.125 60.4375 C24.785 61.7575 25.445 63.0775 26.125 64.4375 C28.765 64.4375 31.405 64.4375 34.125 64.4375 C34.785 63.1175 35.445 61.7975 36.125 60.4375 C32.165 60.4375 28.205 60.4375 24.125 60.4375 Z " fill="#191919" transform="translate(49.875,15.5625)"/>
<path d="M0 0 C1.09248047 0.00193359 1.09248047 0.00193359 2.20703125 0.00390625 C7.59351504 0.09351504 7.59351504 0.09351504 9.875 2.375 C10.21423233 5.37962922 10.44414369 7.47754122 9.875 10.375 C6.81217032 13.60798689 3.11182654 16.03632556 -1.34375 16.7109375 C-5.05143869 16.77442532 -7.43631521 16.77813256 -10.6875 14.875 C-12.65242759 11.45773462 -13.14615805 8.21935972 -12.125 4.375 C-8.92568212 -0.30092613 -5.24832479 -0.17838671 0 0 Z M-7.125 6.375 C-6.795 8.025 -6.465 9.675 -6.125 11.375 C-1.45038149 11.70113618 1.04174383 11.08082788 4.875 8.375 C4.545 7.055 4.215 5.735 3.875 4.375 C1.9878125 4.313125 1.9878125 4.313125 0.0625 4.25 C-0.64519531 4.22679687 -1.35289063 4.20359375 -2.08203125 4.1796875 C-4.43859719 4.24245538 -4.43859719 4.24245538 -7.125 6.375 Z " fill="#1A1A1A" transform="translate(74.125,51.625)"/>
<path d="M0 0 C1.08087891 -0.03673828 1.08087891 -0.03673828 2.18359375 -0.07421875 C5.67124382 -0.09348753 7.73442545 0.09531412 10.6015625 2.1484375 C12.65011959 5.14248248 12.71339272 6.9392879 12.49609375 10.46875 C12.125 12.375 12.125 12.375 10.6875 14.875 C6.82253164 17.1374205 3.48860736 17.23060929 -0.875 16.375 C-4.16515919 14.82928763 -7.29007328 12.95992672 -9.875 10.375 C-10.14814815 4.63888889 -10.14814815 4.63888889 -9.875 2.375 C-6.95572255 -0.54427745 -3.90510187 0.00691168 0 0 Z M-3.875 4.375 C-4.205 5.695 -4.535 7.015 -4.875 8.375 C-1.04174383 11.08082788 1.45038149 11.70113618 6.125 11.375 C6.455 9.725 6.785 8.075 7.125 6.375 C4.03611478 4.31574319 3.41564073 4.1359626 -0.0625 4.25 C-1.320625 4.29125 -2.57875 4.3325 -3.875 4.375 Z " fill="#1A1A1A" transform="translate(25.875,51.625)"/>
</svg>
