<?xml version="1.0" encoding="UTF-8"?>
<svg version="1.1" xmlns="http://www.w3.org/2000/svg" width="830" height="442">
<path d="M0 0 C1.21196548 -0.00701431 2.42393097 -0.01402863 3.67262268 -0.02125549 C7.56564076 -0.03867737 11.45850686 -0.04510827 15.3515625 -0.046875 C16.01408649 -0.04731686 16.67661049 -0.04775871 17.35921097 -0.04821396 C37.06706316 -0.05511182 56.46249274 0.17065408 75.9765625 3.203125 C77.11254883 3.36941406 78.24853516 3.53570312 79.41894531 3.70703125 C137.83350686 12.42321341 194.85830235 36.78109078 239.9765625 75.203125 C241.02521508 76.06741014 242.07473883 76.93063905 243.125 77.79296875 C256.9835379 89.28409024 269.93987542 101.96512706 280.9765625 116.203125 C282.43353142 117.93344146 283.89191577 119.66256687 285.3515625 121.390625 C294.6994774 132.83937792 302.69756714 145.35691865 309.9765625 158.203125 C310.37198242 158.89680176 310.76740234 159.59047852 311.17480469 160.30517578 C326.5036984 187.48022883 342.75592035 224.36078989 341.9765625 256.203125 C342.48832031 256.04328125 343.00007812 255.8834375 343.52734375 255.71875 C351.83439201 253.96989774 362.41979716 254.01806709 369.9765625 258.203125 C375.35793424 261.87612476 379.37848806 265.70208662 380.9765625 272.203125 C381.40434458 276.89686567 381.3952877 281.55544901 381.3515625 286.265625 C381.36316406 287.51923828 381.37476563 288.77285156 381.38671875 290.06445312 C381.38285156 291.27681641 381.37898437 292.48917969 381.375 293.73828125 C381.37161621 294.835354 381.36823242 295.93242676 381.36474609 297.06274414 C380.71627381 302.30884412 378.27502805 306.20482995 374.7890625 310.078125 C374.25925781 310.67367188 373.72945312 311.26921875 373.18359375 311.8828125 C372.78527344 312.31851562 372.38695312 312.75421875 371.9765625 313.203125 C372.6571875 313.368125 373.3378125 313.533125 374.0390625 313.703125 C380.20701966 316.85272015 384.75582394 323.0754749 387.31640625 329.44921875 C389.0359787 336.62258311 389.50028472 345.9251671 386.4140625 352.765625 C380.1768711 362.63212289 371.33695312 367.37094584 360.1640625 369.953125 C347.57677018 372.59017041 334.66188228 372.36316475 321.86328125 372.33349609 C319.08588303 372.32809451 316.3086436 372.33349375 313.53125 372.33984375 C311.74479131 372.33918356 309.95833273 372.33790362 308.171875 372.3359375 C307.35196075 372.33796173 306.53204651 372.33998596 305.68728638 372.34207153 C301.01393469 372.3231457 296.5867733 371.97803441 291.9765625 371.203125 C291.8115625 372.358125 291.6465625 373.513125 291.4765625 374.703125 C288.64485784 387.27747787 280.99074531 398.37878893 272.9765625 408.203125 C272.51507812 408.80511719 272.05359375 409.40710938 271.578125 410.02734375 C257.88962982 427.52840638 233.68098674 439.08611513 211.9765625 442.203125 C180.27862577 443.97566678 153.88824089 438.37029076 129.32348633 417.30322266 C117.84006194 406.95822084 109.69102 394.48047727 103.9765625 380.203125 C103.58855469 379.30078125 103.20054687 378.3984375 102.80078125 377.46875 C101.9765625 375.203125 101.9765625 375.203125 101.9765625 372.203125 C18.1565625 372.203125 -65.6634375 372.203125 -152.0234375 372.203125 C-152.3534375 374.183125 -152.6834375 376.163125 -153.0234375 378.203125 C-154.11937441 380.80038364 -155.24375296 383.26406384 -156.5234375 385.765625 C-156.88163574 386.46671387 -157.23983398 387.16780273 -157.60888672 387.89013672 C-167.07940222 406.00532234 -180.18917013 420.18039073 -198.0234375 430.203125 C-199.04308594 430.77675781 -200.06273437 431.35039062 -201.11328125 431.94140625 C-223.60613616 443.85286555 -251.82409888 446.13441286 -276.16894531 438.79736328 C-298.56789058 431.62002879 -318.35492577 417.07958305 -331.0234375 397.203125 C-331.54679687 396.41292969 -332.07015625 395.62273437 -332.609375 394.80859375 C-335.56383187 390.16694704 -337.76658467 385.53323328 -339.703125 380.37890625 C-340.14124512 379.21915283 -340.57936523 378.05939941 -341.03076172 376.86450195 C-341.52213623 375.54712036 -341.52213623 375.54712036 -342.0234375 374.203125 C-342.72341858 374.18251007 -343.42339966 374.16189514 -344.14459229 374.14065552 C-350.79282122 373.94340008 -357.44075447 373.73820669 -364.08847427 373.52444649 C-367.50483307 373.41486285 -370.92122752 373.30818052 -374.33789062 373.20849609 C-378.280251 373.09333924 -382.22212881 372.96490204 -386.1640625 372.8359375 C-387.37080627 372.80251251 -388.57755005 372.76908752 -389.82086182 372.73464966 C-403.78697279 372.25450171 -417.21329415 370.79349975 -427.9609375 360.953125 C-434.68136006 353.59187975 -437.35192701 345.03025418 -437.234375 335.2734375 C-436.59460057 325.96116527 -431.3892821 320.51213171 -425.0234375 314.203125 C-425.60351562 313.87441406 -426.18359375 313.54570312 -426.78125 313.20703125 C-433.9326389 308.85247266 -438.32264614 303.96534082 -441.15625 296.03125 C-443.41411319 286.0641062 -444.16212441 273.08184123 -438.5703125 264.17578125 C-431.48666684 255.14234423 -424.97854641 251.33564189 -413.6484375 249.953125 C-406.97516769 249.203125 -406.97516769 249.203125 -404.0234375 249.203125 C-403.765625 248.3575 -403.5078125 247.511875 -403.2421875 246.640625 C-391.97108489 214.8503356 -364.23205077 189.28816364 -335.0234375 174.203125 C-321.75135714 167.93433029 -307.0485595 165.38431549 -292.7421875 162.54296875 C-257.11672201 155.53223297 -257.11672201 155.53223297 -228.73046875 133.8203125 C-227.0234375 132.203125 -227.0234375 132.203125 -225.0234375 132.203125 C-224.77207031 131.62949219 -224.52070313 131.05585938 -224.26171875 130.46484375 C-222.85874929 127.90232225 -221.22793718 126.12991965 -219.2109375 124.015625 C-214.50352483 118.88642815 -210.31864487 113.45247012 -206.12841797 107.8972168 C-201.60524524 101.91719396 -196.92467538 96.08233731 -192.16113281 90.29248047 C-191.64776367 89.66744629 -191.13439453 89.04241211 -190.60546875 88.3984375 C-190.15405518 87.85203613 -189.7026416 87.30563477 -189.23754883 86.74267578 C-188.08945883 85.28684318 -187.05188805 83.74580082 -186.0234375 82.203125 C-185.3634375 82.203125 -184.7034375 82.203125 -184.0234375 82.203125 C-183.75281494 81.61176758 -183.48219238 81.02041016 -183.20336914 80.41113281 C-182.03510651 78.22496123 -180.82774109 76.68298073 -179.14453125 74.875 C-178.56195557 74.24819336 -177.97937988 73.62138672 -177.37915039 72.97558594 C-176.74614014 72.30817383 -176.11312988 71.64076172 -175.4609375 70.953125 C-174.79763428 70.25219727 -174.13433105 69.55126953 -173.45092773 68.82910156 C-126.90585764 20.12710456 -67.04396836 0.2600185 0 0 Z " fill="#FDFDFD" transform="translate(442.0234375,-0.203125)"/>
<path d="M0 0 C1.21196548 -0.00701431 2.42393097 -0.01402863 3.67262268 -0.02125549 C7.56564076 -0.03867737 11.45850686 -0.04510827 15.3515625 -0.046875 C16.01408649 -0.04731686 16.67661049 -0.04775871 17.35921097 -0.04821396 C37.06706316 -0.05511182 56.46249274 0.17065408 75.9765625 3.203125 C77.11254883 3.36941406 78.24853516 3.53570312 79.41894531 3.70703125 C137.83350686 12.42321341 194.85830235 36.78109078 239.9765625 75.203125 C241.02521508 76.06741014 242.07473883 76.93063905 243.125 77.79296875 C256.9835379 89.28409024 269.93987542 101.96512706 280.9765625 116.203125 C282.43353142 117.93344146 283.89191577 119.66256687 285.3515625 121.390625 C294.6994774 132.83937792 302.69756714 145.35691865 309.9765625 158.203125 C310.37198242 158.89680176 310.76740234 159.59047852 311.17480469 160.30517578 C326.5036984 187.48022883 342.75592035 224.36078989 341.9765625 256.203125 C342.48832031 256.04328125 343.00007812 255.8834375 343.52734375 255.71875 C351.83439201 253.96989774 362.41979716 254.01806709 369.9765625 258.203125 C375.35793424 261.87612476 379.37848806 265.70208662 380.9765625 272.203125 C381.40434458 276.89686567 381.3952877 281.55544901 381.3515625 286.265625 C381.36316406 287.51923828 381.37476563 288.77285156 381.38671875 290.06445312 C381.38285156 291.27681641 381.37898437 292.48917969 381.375 293.73828125 C381.37161621 294.835354 381.36823242 295.93242676 381.36474609 297.06274414 C380.71627381 302.30884412 378.27502805 306.20482995 374.7890625 310.078125 C374.25925781 310.67367188 373.72945312 311.26921875 373.18359375 311.8828125 C372.78527344 312.31851562 372.38695312 312.75421875 371.9765625 313.203125 C372.6571875 313.368125 373.3378125 313.533125 374.0390625 313.703125 C380.20701966 316.85272015 384.75582394 323.0754749 387.31640625 329.44921875 C389.0359787 336.62258311 389.50028472 345.9251671 386.4140625 352.765625 C380.1768711 362.63212289 371.33695312 367.37094584 360.1640625 369.953125 C347.57677018 372.59017041 334.66188228 372.36316475 321.86328125 372.33349609 C319.08588303 372.32809451 316.3086436 372.33349375 313.53125 372.33984375 C311.74479131 372.33918356 309.95833273 372.33790362 308.171875 372.3359375 C307.35196075 372.33796173 306.53204651 372.33998596 305.68728638 372.34207153 C301.01393469 372.3231457 296.5867733 371.97803441 291.9765625 371.203125 C291.8115625 372.358125 291.6465625 373.513125 291.4765625 374.703125 C288.64485784 387.27747787 280.99074531 398.37878893 272.9765625 408.203125 C272.51507812 408.80511719 272.05359375 409.40710938 271.578125 410.02734375 C257.88962982 427.52840638 233.68098674 439.08611513 211.9765625 442.203125 C180.27862577 443.97566678 153.88824089 438.37029076 129.32348633 417.30322266 C117.84006194 406.95822084 109.69102 394.48047727 103.9765625 380.203125 C103.58855469 379.30078125 103.20054687 378.3984375 102.80078125 377.46875 C101.9765625 375.203125 101.9765625 375.203125 101.9765625 372.203125 C18.1565625 372.203125 -65.6634375 372.203125 -152.0234375 372.203125 C-152.3534375 374.183125 -152.6834375 376.163125 -153.0234375 378.203125 C-154.11937441 380.80038364 -155.24375296 383.26406384 -156.5234375 385.765625 C-156.88163574 386.46671387 -157.23983398 387.16780273 -157.60888672 387.89013672 C-167.07940222 406.00532234 -180.18917013 420.18039073 -198.0234375 430.203125 C-199.04308594 430.77675781 -200.06273437 431.35039062 -201.11328125 431.94140625 C-223.60613616 443.85286555 -251.82409888 446.13441286 -276.16894531 438.79736328 C-298.56789058 431.62002879 -318.35492577 417.07958305 -331.0234375 397.203125 C-331.54679687 396.41292969 -332.07015625 395.62273437 -332.609375 394.80859375 C-335.56383187 390.16694704 -337.76658467 385.53323328 -339.703125 380.37890625 C-340.14124512 379.21915283 -340.57936523 378.05939941 -341.03076172 376.86450195 C-341.52213623 375.54712036 -341.52213623 375.54712036 -342.0234375 374.203125 C-342.72341858 374.18251007 -343.42339966 374.16189514 -344.14459229 374.14065552 C-350.79282122 373.94340008 -357.44075447 373.73820669 -364.08847427 373.52444649 C-367.50483307 373.41486285 -370.92122752 373.30818052 -374.33789062 373.20849609 C-378.280251 373.09333924 -382.22212881 372.96490204 -386.1640625 372.8359375 C-387.37080627 372.80251251 -388.57755005 372.76908752 -389.82086182 372.73464966 C-403.78697279 372.25450171 -417.21329415 370.79349975 -427.9609375 360.953125 C-434.68136006 353.59187975 -437.35192701 345.03025418 -437.234375 335.2734375 C-436.59460057 325.96116527 -431.3892821 320.51213171 -425.0234375 314.203125 C-425.60351562 313.87441406 -426.18359375 313.54570312 -426.78125 313.20703125 C-433.9326389 308.85247266 -438.32264614 303.96534082 -441.15625 296.03125 C-443.41411319 286.0641062 -444.16212441 273.08184123 -438.5703125 264.17578125 C-431.48666684 255.14234423 -424.97854641 251.33564189 -413.6484375 249.953125 C-406.97516769 249.203125 -406.97516769 249.203125 -404.0234375 249.203125 C-403.765625 248.3575 -403.5078125 247.511875 -403.2421875 246.640625 C-391.97108489 214.8503356 -364.23205077 189.28816364 -335.0234375 174.203125 C-321.75135714 167.93433029 -307.0485595 165.38431549 -292.7421875 162.54296875 C-257.11672201 155.53223297 -257.11672201 155.53223297 -228.73046875 133.8203125 C-227.0234375 132.203125 -227.0234375 132.203125 -225.0234375 132.203125 C-224.77207031 131.62949219 -224.52070313 131.05585938 -224.26171875 130.46484375 C-222.85874929 127.90232225 -221.22793718 126.12991965 -219.2109375 124.015625 C-214.50352483 118.88642815 -210.31864487 113.45247012 -206.12841797 107.8972168 C-201.60524524 101.91719396 -196.92467538 96.08233731 -192.16113281 90.29248047 C-191.64776367 89.66744629 -191.13439453 89.04241211 -190.60546875 88.3984375 C-190.15405518 87.85203613 -189.7026416 87.30563477 -189.23754883 86.74267578 C-188.08945883 85.28684318 -187.05188805 83.74580082 -186.0234375 82.203125 C-185.3634375 82.203125 -184.7034375 82.203125 -184.0234375 82.203125 C-183.75281494 81.61176758 -183.48219238 81.02041016 -183.20336914 80.41113281 C-182.03510651 78.22496123 -180.82774109 76.68298073 -179.14453125 74.875 C-178.56195557 74.24819336 -177.97937988 73.62138672 -177.37915039 72.97558594 C-176.74614014 72.30817383 -176.11312988 71.64076172 -175.4609375 70.953125 C-174.79763428 70.25219727 -174.13433105 69.55126953 -173.45092773 68.82910156 C-126.90585764 20.12710456 -67.04396836 0.2600185 0 0 Z M-36.0234375 9.890625 C-36.67753601 9.97549164 -37.33163452 10.06035828 -38.0055542 10.14779663 C-75.26518056 15.05527971 -114.2981044 25.84681245 -143.0234375 51.203125 C-143.8175 51.89921875 -144.6115625 52.5953125 -145.4296875 53.3125 C-147.98417364 55.58499741 -150.50577785 57.88989071 -153.0234375 60.203125 C-153.8582666 60.96230225 -153.8582666 60.96230225 -154.70996094 61.73681641 C-163.93147218 70.06786903 -163.93147218 70.06786903 -172.3359375 79.203125 C-174.40383777 81.65396976 -176.58938874 83.98027259 -178.7734375 86.328125 C-184.04474694 92.10981841 -188.84647403 98.19967305 -193.62353516 104.39160156 C-220.58359684 139.27888055 -220.58359684 139.27888055 -236.0234375 151.203125 C-236.69157471 151.76459229 -237.35971191 152.32605957 -238.0480957 152.90454102 C-243.16502997 157.11263754 -247.74937618 159.7516265 -254.0859375 161.640625 C-254.98860352 161.92083496 -255.89126953 162.20104492 -256.82128906 162.48974609 C-268.4544837 165.89883001 -280.42576736 168.05568682 -292.33227539 170.27514648 C-300.55435931 171.81870243 -308.68236509 173.51087601 -316.75390625 175.72265625 C-317.46867126 175.91622711 -318.18343628 176.10979797 -318.91986084 176.30923462 C-348.21788872 184.6259411 -372.95825305 208.11577131 -388.1484375 233.8125 C-402.57920618 259.90814004 -407.0234375 280.36331548 -407.0234375 311.203125 C-384.9134375 311.203125 -362.8034375 311.203125 -340.0234375 311.203125 C-338.7034375 307.573125 -337.3834375 303.943125 -336.0234375 300.203125 C-334.72670913 297.6404816 -333.45897092 295.2551714 -331.9609375 292.828125 C-331.57663574 292.20019043 -331.19233398 291.57225586 -330.79638672 290.92529297 C-316.79165251 268.68445458 -295.19686951 253.57770295 -269.81640625 246.74609375 C-252.59353457 243.39787114 -233.64989676 243.4402403 -217.0234375 249.203125 C-216.3929248 249.41743164 -215.76241211 249.63173828 -215.11279297 249.85253906 C-190.19139266 258.4842517 -170.22623516 275.87200266 -158.41796875 299.40234375 C-157.24153819 301.98635106 -156.12725886 304.58764467 -155.0234375 307.203125 C-154.3634375 308.523125 -153.7034375 309.843125 -153.0234375 311.203125 C-109.1334375 311.203125 -65.2434375 311.203125 -20.0234375 311.203125 C-20.0234375 263.023125 -20.0234375 214.843125 -20.0234375 165.203125 C-77.7734375 164.873125 -135.5234375 164.543125 -195.0234375 164.203125 C-196.2729114 159.2052294 -194.81538692 157.03677432 -192.4609375 152.765625 C-192.06326172 152.03061768 -191.66558594 151.29561035 -191.25585938 150.53833008 C-183.41327436 136.39071948 -174.04276523 122.89301079 -164.0234375 110.203125 C-163.31058594 109.29820313 -162.59773437 108.39328125 -161.86328125 107.4609375 C-142.05521704 82.79692809 -119.1708953 61.90212009 -91.0234375 47.203125 C-90.41419434 46.88214844 -89.80495117 46.56117187 -89.17724609 46.23046875 C-81.63647583 42.31573816 -73.96361097 39.36509412 -65.8359375 36.890625 C-65.0409082 36.64803955 -64.24587891 36.4054541 -63.42675781 36.15551758 C-51.88869812 32.8125054 -40.82487482 31.90075369 -28.8359375 32.015625 C-27.50195377 32.0170861 -26.1679689 32.0177413 -24.83398438 32.01757812 C-15.16414742 32.06241508 -15.16414742 32.06241508 -14.0234375 33.203125 C-13.92168438 34.6885873 -13.88946081 36.17886601 -13.8847723 37.66780186 C-13.87929786 38.63817688 -13.87382341 39.60855189 -13.86818308 40.60833222 C-13.86671592 42.22648839 -13.86671592 42.22648839 -13.86521912 43.87733459 C-13.86028114 45.01341658 -13.85534316 46.14949856 -13.85025555 47.32000726 C-13.8374989 50.48738738 -13.82924143 53.65474358 -13.82282889 56.82214177 C-13.81484722 60.23253026 -13.80114182 63.64289615 -13.78811646 67.05326843 C-13.76632189 72.96661232 -13.74818835 78.87995846 -13.73251152 84.79332161 C-13.70983995 93.34314798 -13.68169342 101.89294935 -13.65219224 110.44275456 C-13.60448298 124.31281819 -13.56122787 138.18289203 -13.52075195 152.05297852 C-13.48141397 165.52987462 -13.43999184 179.00676164 -13.39575195 192.48364258 C-13.39302768 193.31376463 -13.39030341 194.14388667 -13.38749658 194.99916393 C-13.37381739 199.16346522 -13.36009706 203.32776637 -13.34635627 207.49206746 C-13.23233913 242.0624022 -13.12635801 276.63275509 -13.0234375 311.203125 C25.5865625 311.203125 64.1965625 311.203125 103.9765625 311.203125 C105.2965625 307.903125 106.6165625 304.603125 107.9765625 301.203125 C111.99809181 292.70046303 116.68533301 285.19577802 122.9765625 278.203125 C123.40565918 277.72488281 123.83475586 277.24664062 124.27685547 276.75390625 C140.83602862 258.56394972 164.35197091 246.51372719 189.12597656 245.07861328 C215.4727007 244.18257978 241.36953011 250.37863897 261.2890625 268.703125 C263.2005836 270.52095602 265.08794312 272.36130814 266.9765625 274.203125 C267.63398437 274.78707031 268.29140625 275.37101562 268.96875 275.97265625 C279.00085729 285.10326081 284.3839013 298.218851 289.9765625 310.203125 C311.4265625 310.203125 332.8765625 310.203125 354.9765625 310.203125 C351.0165625 302.778125 351.0165625 302.778125 346.9765625 295.203125 C345.81041455 292.6050665 344.6857474 289.98631404 343.6640625 287.328125 C343.21417969 286.17570312 342.76429688 285.02328125 342.30078125 283.8359375 C341.64529297 282.03769531 341.64529297 282.03769531 340.9765625 280.203125 C340.7283374 279.5531958 340.4801123 278.9032666 340.22436523 278.23364258 C337.79089005 271.51866848 336.76670773 264.67664064 335.6640625 257.640625 C331.14938383 230.35251374 323.90522869 204.20035888 311.9765625 179.203125 C311.65042969 178.51379883 311.32429687 177.82447266 310.98828125 177.11425781 C299.91363529 153.85088298 285.49061356 132.58810027 268.11328125 113.55859375 C266.27597042 111.53318529 264.49615562 109.47481245 262.7265625 107.390625 C254.28663921 97.73941642 245.03150426 89.14357166 234.9765625 81.203125 C233.2678807 79.76603922 231.5595558 78.328529 229.8515625 76.890625 C218.54865895 67.66475073 206.45809748 59.52877059 193.81396484 52.26660156 C192.00776731 51.22118614 190.22033827 50.14856284 188.43359375 49.0703125 C149.53150938 25.96748225 104.06621931 12.87184589 59.1640625 8.953125 C58.2291095 8.86874176 57.29415649 8.78435852 56.33087158 8.69741821 C42.49959969 7.46905877 28.73681388 6.84596961 14.8515625 6.890625 C14.07179047 6.89308228 13.29201843 6.89553955 12.48861694 6.89807129 C-3.75156367 6.99043946 -19.91069735 7.79582059 -36.0234375 9.890625 Z " fill="#050505" transform="translate(442.0234375,-0.203125)"/>
<path d="M0 0 C20.14825562 15.01838149 33.92492423 35.99658825 38.26171875 60.92578125 C41.09042757 85.50181109 35.92385857 109.67759272 21.4375 129.9375 C5.31067503 150.06157218 -15.97331548 163.84644206 -41.96875 167.3125 C-67.69703083 169.71701223 -91.09319456 162.86133273 -111.4609375 147.0078125 C-129.85790273 131.63500594 -142.05612126 110.09194885 -145 86.19921875 C-147.31480592 59.72362601 -139.81431797 36.25981443 -123.3125 15.625 C-122.84457031 14.99078125 -122.37664062 14.3565625 -121.89453125 13.703125 C-110.48249465 -1.04473768 -91.93189468 -9.83530903 -74.3125 -14.375 C-73.11109375 -14.72949219 -71.9096875 -15.08398438 -70.671875 -15.44921875 C-46.29080302 -21.44626916 -20.30250085 -13.51375253 0 0 Z " fill="#FDFDFD" transform="translate(248.3125,267.375)"/>
<path d="M0 0 C1.64582629 1.39241706 3.27018942 2.81050271 4.875 4.25 C5.78121094 5.06210937 6.68742188 5.87421875 7.62109375 6.7109375 C23.6544698 21.87704356 35.08159216 44.04728642 36.11328125 66.2890625 C36.75442669 92.51852367 29.29774004 116.56433706 11.11328125 135.91015625 C10.37464844 136.68230469 9.63601563 137.45445312 8.875 138.25 C8.24980469 138.94996094 7.62460937 139.64992188 6.98046875 140.37109375 C-3.48114592 151.66963759 -19.35836784 159.27538065 -34.125 163.25 C-34.85847656 163.45496094 -35.59195313 163.65992188 -36.34765625 163.87109375 C-59.39853875 169.16804773 -83.80664643 164.28473153 -103.9375 152.4375 C-109.91281921 148.59047686 -115.03430041 144.18695363 -120.125 139.25 C-120.87265625 138.58742188 -121.6203125 137.92484375 -122.390625 137.2421875 C-138.32007139 122.5937805 -147.2064756 100.04604399 -148.4765625 78.66015625 C-148.79459761 68.58147208 -147.44695209 59.03459813 -145.125 49.25 C-144.92003906 48.35023438 -144.71507812 47.45046875 -144.50390625 46.5234375 C-138.7610958 24.62228462 -122.63368859 5.58447689 -103.41796875 -5.85546875 C-101.78794922 -6.79326172 -101.78794922 -6.79326172 -100.125 -7.75 C-99.29613281 -8.24113281 -98.46726562 -8.73226563 -97.61328125 -9.23828125 C-67.25882758 -25.88427197 -26.99786807 -20.82327679 0 0 Z " fill="#FDFDFD" transform="translate(695.125,269.75)"/>
<path d="M0 0 C27.81628344 0 27.81628344 0 38.125 1.6875 C39.87417725 1.95759888 39.87417725 1.95759888 41.65869141 2.2331543 C93.02628769 10.44369253 141.64587089 30.94559871 182 64 C182.54156738 64.44005371 183.08313477 64.88010742 183.64111328 65.33349609 C200.63978525 79.24857492 217.21831363 95.08680787 230 113 C230.45616699 113.62535645 230.91233398 114.25071289 231.38232422 114.89501953 C235 119.87771264 235 119.87771264 235 121 C157.45 121 79.9 121 0 121 C0 81.07 0 41.14 0 0 Z " fill="#FEFEFE" transform="translate(466,37)"/>
<path d="M0 0 C0 39.6 0 79.2 0 120 C-55.11 120 -110.22 120 -167 120 C-164.74762408 113.24287223 -164.74762408 113.24287223 -162.53125 109.75 C-162.04793213 108.98405518 -161.56461426 108.21811035 -161.06665039 107.42895508 C-160.54965576 106.6273999 -160.03266113 105.82584473 -159.5 105 C-158.96173584 104.15912842 -158.42347168 103.31825684 -157.86889648 102.4519043 C-129.06552123 57.78222699 -88.63236572 14.3238005 -34.8125 2.3125 C-23.08742619 -0.17716573 -12.1247856 0 0 0 Z " fill="#FDFDFD" transform="translate(422,38)"/>
<path d="M0 0 C83.16 0 166.32 0 252 0 C251.34 5.28 250.68 10.56 250 16 C249.85460715 19.66192831 249.7581321 23.22376663 249.8125 26.875 C249.81314453 27.720625 249.81378906 28.56625 249.81445312 29.4375 C249.85543211 35.39311252 250.40269299 41.02692988 251 47 C168.5 47 86 47 1 47 C1.33 43.7 1.66 40.4 2 37 C2.18265821 33.06164332 2.18496476 29.12979274 2.1875 25.1875 C2.19974609 24.19685547 2.21199219 23.20621094 2.22460938 22.18554688 C2.23967654 14.42595515 1.21095282 7.87119336 0 0 Z " fill="#FDFDFD" transform="translate(291,318)"/>
<path d="M0 0 C8.89272742 7.144703 15.35684245 16.69083691 17.50390625 28.01171875 C18.41702274 42.01931426 14.86900686 53.5658819 6.12890625 64.76171875 C-1.33855436 72.69227769 -12.59895013 77.33703281 -23.28515625 78.25 C-36.44795731 78.59448102 -46.93665251 74.11345945 -56.49609375 65.1328125 C-64.63740106 56.44758165 -68.96808667 45.78943068 -68.67578125 33.90234375 C-67.88030785 21.10559772 -63.62038322 11.00976806 -54.203125 2.08984375 C-37.96296614 -10.37734891 -17.16165396 -11.91573353 0 0 Z " fill="#FDFDFD" transform="translate(219.49609375,306.98828125)"/>
<path d="M0 0 C8.53367523 6.97847274 14.94101673 17.04499635 16.5078125 28.05078125 C17.68153977 40.57053879 14.12351146 52.03876322 6.5078125 62.05078125 C-1.25089563 70.72390855 -11.24912159 76.40099002 -22.9609375 77.32421875 C-36.6803669 77.80871489 -47.21344804 73.92143659 -57.4921875 64.55078125 C-66.06954767 55.72694521 -69.41480595 44.67802936 -69.8671875 32.67578125 C-69.65898338 21.51083549 -65.06004037 11.96061357 -57.45703125 3.890625 C-40.72161382 -11.90028915 -18.91876137 -12.87909849 0 0 Z " fill="#FDFDFD" transform="translate(664.4921875,307.94921875)"/>
<path d="M0 0 C70.16406496 0.58001356 138.81649598 31.09657557 190.203125 77.99707031 C191.88220955 79.52519616 193.57549573 81.03783514 195.28125 82.53613281 C199.79251235 86.5090421 203.98546925 90.51746536 207.85546875 95.11816406 C209.95219143 97.56957859 212.15934512 99.89922076 214.3671875 102.25097656 C220.67880345 109.16185774 226.23586048 116.64522238 231.6796875 124.25097656 C232.29638306 125.10864624 232.29638306 125.10864624 232.92553711 125.98364258 C235.70261924 129.96815173 235.70261924 129.96815173 235.4921875 132.56347656 C234.6796875 134.25097656 234.6796875 134.25097656 233.6796875 135.25097656 C232.34720898 135.34906155 231.00958414 135.37836433 229.67350101 135.37961102 C228.37131629 135.38444768 228.37131629 135.38444768 227.0428248 135.38938206 C226.07825576 135.38783346 225.11368672 135.38628486 224.11988831 135.38468933 C222.59551656 135.38808767 222.59551656 135.38808767 221.04034942 135.39155465 C217.60704783 135.39792637 214.17378539 135.39706327 210.74047852 135.39624023 C208.29040475 135.39922974 205.84033145 135.40263178 203.39025879 135.40641785 C197.40928056 135.41436072 191.42831795 135.41747341 185.44733591 135.41803022 C180.58801171 135.41850463 175.72869077 135.42055556 170.8693676 135.42373085 C157.10636085 135.43254178 143.34336191 135.43714954 129.58035231 135.43640038 C128.83768127 135.43636042 128.09501022 135.43632046 127.32983398 135.4362793 C126.58626103 135.43623842 125.84268807 135.43619754 125.0765826 135.43615542 C113.02114532 135.43574881 100.96573925 135.44532074 88.91031099 135.45941766 C76.54567176 135.47376261 64.18104776 135.48068889 51.81639999 135.47982389 C44.86904231 135.47949127 37.92171735 135.48226673 30.97436714 135.49300194 C24.44341773 135.50302866 17.91252584 135.50279089 11.38156891 135.49548531 C8.97808418 135.49443427 6.57459522 135.49683281 4.17111778 135.50284576 C0.90281881 135.5104957 -2.36523642 135.50596768 -5.63352966 135.49821472 C-6.59586799 135.50335828 -7.55820631 135.50850185 -8.5497064 135.51380128 C-9.4204373 135.50920248 -10.29116819 135.50460369 -11.18828487 135.49986553 C-11.94338626 135.5000829 -12.69848764 135.50030027 -13.47647089 135.50052422 C-15.3203125 135.25097656 -15.3203125 135.25097656 -17.3203125 133.25097656 C-17.56920147 130.9461813 -17.56920147 130.9461813 -17.56755066 128.00596619 C-17.57174515 126.89399368 -17.57593964 125.78202118 -17.58026123 124.63635254 C-17.57464172 123.41081665 -17.56902222 122.18528076 -17.56323242 120.92260742 C-17.56513077 119.63645035 -17.56702911 118.35029327 -17.56898499 117.02516174 C-17.5738408 113.4922208 -17.5661689 109.95940577 -17.55603194 106.42648005 C-17.54726494 102.73537632 -17.54900861 99.04427669 -17.5493927 95.35316467 C-17.54845554 89.15493658 -17.53976405 82.95675739 -17.52612305 76.75854492 C-17.51039005 69.58306426 -17.50512515 62.40763715 -17.5058586 55.23214048 C-17.50646804 48.34008662 -17.50137074 41.44805027 -17.49306679 34.55600166 C-17.48952791 31.61781236 -17.48770268 28.67962925 -17.48717308 25.74143791 C-17.485986 21.64424971 -17.47628994 17.54712552 -17.46557617 13.44995117 C-17.46602936 12.22239105 -17.46648254 10.99483093 -17.46694946 9.73007202 C-17.46268448 8.62091934 -17.45841949 7.51176666 -17.45402527 6.3690033 C-17.45234942 5.39910933 -17.45067358 4.42921537 -17.44894695 3.42993069 C-17.09326909 -2.5949384 -4.51779916 0.00115486 0 0 Z M-10.3203125 7.25097656 C-10.3203125 47.18097656 -10.3203125 87.11097656 -10.3203125 128.25097656 C67.2296875 128.25097656 144.7796875 128.25097656 224.6796875 128.25097656 C221.68100624 122.78271743 221.68100624 122.78271743 218.12890625 118.00488281 C217.67708984 117.47701172 217.22527344 116.94914062 216.75976562 116.40527344 C216.30021484 115.87998047 215.84066406 115.3546875 215.3671875 114.81347656 C214.91923828 114.29205078 214.47128906 113.770625 214.00976562 113.23339844 C213.07245771 112.14495459 212.1310644 111.06001816 211.18603516 109.97827148 C210.15319854 108.79394101 209.12715215 107.6036645 208.10693359 106.40844727 C197.16536558 93.68053338 185.08356591 81.38333653 171.6796875 71.25097656 C170.42172274 70.25541565 169.16534458 69.25784819 167.91015625 68.25878906 C157.62415661 60.14201988 146.90369639 53.00006981 135.6796875 46.25097656 C135.02210449 45.84927246 134.36452148 45.44756836 133.68701172 45.03369141 C114.82783492 33.57563085 94.19206352 25.53920314 73.17236328 19.02636719 C71.124688 18.38940179 69.08628536 17.72270115 67.05078125 17.04785156 C55.60002718 13.43634965 43.62608678 11.73605604 31.80712891 9.77197266 C29.32802079 9.3589815 26.85342632 8.92841544 24.37890625 8.48925781 C12.63287017 6.61361672 1.95256764 7.25097656 -10.3203125 7.25097656 Z " fill="#050505" transform="translate(476.3203125,29.7490234375)"/>
<path d="M0 0 C9.11901578 -0.09291788 18.23786713 -0.16387492 27.35725403 -0.20724869 C31.59234407 -0.22807209 35.82710884 -0.25629279 40.06201172 -0.30175781 C44.15339326 -0.34540424 48.24446307 -0.36917653 52.33605957 -0.37950897 C53.89250593 -0.3868668 55.44893635 -0.40123476 57.00524902 -0.42292023 C66.27576478 -0.54688919 73.63355096 -0.61788738 80.98828125 5.7109375 C86.03919482 12.05810323 88.66214512 16.95050862 88.4140625 25.25 C87.53501538 31.08819974 84.31734832 34.68265168 80.25 38.75 C73.59116919 43.35995979 67.84765363 45.26217359 59.7421875 46.10546875 C58.92211716 46.19081879 58.10204681 46.27616882 57.25712585 46.36410522 C46.12880377 47.40297675 34.97689171 47.21399944 23.8125 47.125 C21.58659262 47.11493757 19.36068078 47.10581756 17.13476562 47.09765625 C11.75641061 47.07593027 6.3782272 47.04271778 1 47 C1.0702388 46.26467041 1.1404776 45.52934082 1.21284485 44.77172852 C1.30414169 43.79647217 1.39543854 42.82121582 1.48950195 41.81640625 C1.58036575 40.85420166 1.67122955 39.89199707 1.7648468 38.90063477 C2.11364598 34.59816708 2.19089987 30.31485412 2.1875 26 C2.18814453 25.1349585 2.18878906 24.26991699 2.18945312 23.37866211 C2.1436926 17.83799891 1.72114129 12.60231085 0.4375 7.19140625 C-0.05020355 4.74853403 -0.02876032 2.48545683 0 0 Z " fill="#FCFCFC" transform="translate(735,317)"/>
<path d="M0 0 C1.01080879 -0.00043808 1.01080879 -0.00043808 2.04203796 -0.00088501 C4.24967732 0.00049843 6.45697104 0.01601244 8.66455078 0.03173828 C10.20297054 0.03547193 11.74139268 0.03831724 13.27981567 0.04031372 C17.31415458 0.04792249 21.34834776 0.06754706 25.38262939 0.08972168 C29.50522898 0.11023971 33.62785227 0.11932814 37.75048828 0.12939453 C45.82867989 0.15079577 53.90675342 0.18489814 61.98486328 0.22705078 C61.46773514 3.84830437 60.95005654 7.4694724 60.43017578 11.09033203 C59.88465349 15.53687352 59.83769043 19.93933064 59.85986328 24.41455078 C59.85599609 25.17574219 59.85212891 25.93693359 59.84814453 26.72119141 C59.85949946 33.58524301 60.39842918 40.39088563 60.98486328 47.22705078 C23.23140607 47.60534194 23.23140607 47.60534194 7.17236328 46.53955078 C5.66730225 46.45954834 5.66730225 46.45954834 4.13183594 46.37792969 C-4.6249221 45.68727691 -11.87350393 42.8204672 -17.95263672 36.35205078 C-23.0253941 29.91539166 -24.65346089 24.25702064 -24.42919922 16.10205078 C-23.59171757 10.28708387 -20.54643249 7.43253894 -16.07763672 3.91455078 C-10.67049671 0.93510629 -6.1593044 -0.02256155 0 0 Z " fill="#FDFDFD" transform="translate(37.01513671875,317.77294921875)"/>
<path d="M0 0 C10.56096246 7.91666617 18.25505185 19.28513863 20.91015625 32.30859375 C22.82672578 47.19134289 19.18006027 59.71278803 11.29296875 72.28125 C3.12589253 82.85299498 -8.63616419 89.13389327 -21.70703125 91.28125 C-37.19661143 92.42138734 -49.58789038 89.79201709 -62.015625 79.796875 C-71.72959041 70.71734855 -78.17827457 58.91072265 -78.91015625 45.58203125 C-79.09548359 29.81376356 -75.58377172 17.2094134 -64.39453125 5.40625 C-46.21253954 -11.54930045 -20.85450335 -13.2409545 0 0 Z M-63.94921875 15.80859375 C-71.32443091 26.18305886 -73.05753575 36.99939277 -71.24609375 49.44921875 C-68.72387723 60.91788564 -62.8154215 69.88342421 -53.70703125 77.28125 C-42.6910893 84.0935218 -31.00357819 86.16409495 -18.3125 83.59375 C-6.76255432 80.03535852 2.90000241 73.2086588 8.83203125 62.50390625 C10.10288462 59.79498196 11.23459623 57.07929557 12.29296875 54.28125 C12.72609375 53.146875 13.15921875 52.0125 13.60546875 50.84375 C16.0024392 38.42308496 13.56560292 28.05955536 6.8125 17.52734375 C-0.56978918 6.61521965 -10.86977318 0.88256488 -23.70703125 -1.71875 C-39.9042072 -3.71763813 -53.64424532 3.64705628 -63.94921875 15.80859375 Z " fill="#080808" transform="translate(666.70703125,300.71875)"/>
<path d="M0 0 C1.05985107 0.01015137 1.05985107 0.01015137 2.14111328 0.02050781 C7.18934142 0.12084237 11.30462119 0.60935213 16.0625 2.25 C16.84753906 2.50652344 17.63257813 2.76304687 18.44140625 3.02734375 C30.8375638 7.43696926 40.36786409 16.68388993 46.4375 28.25 C52.3246801 40.95223098 52.88904439 53.98402546 48.25 67.2890625 C43.1409865 80.02798432 34.51084631 90.15516031 22.0625 96.25 C9.01840135 101.42160147 -4.692436 102.19271313 -17.9375 97.25 C-31.56512121 90.90877399 -41.186479 80.9753518 -46.75 67 C-51.12935612 53.17045434 -49.87823578 39.56378595 -43.6875 26.640625 C-36.43600757 13.37368998 -25.53196781 5.86997761 -11.5078125 1.078125 C-7.621855 0.17678694 -3.96485988 -0.05505431 0 0 Z M-26.9375 17.25 C-27.55367187 17.72824219 -28.16984375 18.20648438 -28.8046875 18.69921875 C-35.16798106 24.31305774 -40.63036372 33.95293721 -41.875 42.4375 C-41.895625 43.695625 -41.91625 44.95375 -41.9375 46.25 C-41.99679688 47.07628906 -42.05609375 47.90257812 -42.1171875 48.75390625 C-42.68581546 60.51112544 -38.48231363 70.36285756 -30.9375 79.25 C-23.74878255 86.90202356 -13.77815431 92.73242872 -3.15625 93.43359375 C9.80151442 93.71172758 20.59003038 90.59770146 30.68359375 82.0234375 C40.34596779 72.01888833 44.50586637 60.19900287 44.3359375 46.46875 C43.35603318 34.93387634 37.58702366 25.25240703 29.25 17.4375 C19.47791905 9.45414292 8.53701157 6.6819331 -3.921875 6.9375 C-12.66059442 7.84306678 -20.10522478 11.91147316 -26.9375 17.25 Z " fill="#080808" transform="translate(192.9375,291.75)"/>
<path d="M0 0 C2.14525308 0.0009707 4.2869053 -0.04062787 6.43164062 -0.08496094 C7.80663322 -0.09017008 9.18163816 -0.0928561 10.55664062 -0.09277344 C11.79849121 -0.09986328 13.0403418 -0.10695312 14.31982422 -0.11425781 C18.89550942 0.69856657 20.49683384 2.26976611 23.78320312 5.50097656 C26.66756537 9.7941747 26.39706722 14.51333078 25.78320312 19.50097656 C24.48650293 23.46475329 22.66638146 25.96679548 19.03881836 28.16088867 C13.44805976 30.46217656 7.81844939 30.0542641 1.84570312 30.06347656 C-0.02891602 30.11858398 -0.02891602 30.11858398 -1.94140625 30.17480469 C-12.20160859 30.22384442 -12.20160859 30.22384442 -16.50585938 26.61035156 C-20.22949042 22.74801793 -21.29934989 19.36297044 -21.59179688 14.06347656 C-21.46704245 8.70794741 -19.34909004 5.54475483 -15.51123047 1.86621094 C-10.94874866 -0.84855798 -5.18953602 -0.01658756 0 0 Z " fill="#060606" transform="translate(383.216796875,182.4990234375)"/>
<path d="M0 0 C-0.26554687 1.08796875 -0.53109375 2.1759375 -0.8046875 3.296875 C-4.67593494 19.30718296 -6.45925589 34.53148417 -7 51 C-16.37599063 50.00747478 -16.37599063 50.00747478 -21 46 C-27.65403447 37.35528486 -28.94898375 28.74693283 -28 18 C-26.31811134 11.04668848 -20.96259889 5.67605654 -15 2 C-10.02989106 0.50773404 -5.17400837 0 0 0 Z " fill="#F8F8F8" transform="translate(35,257)"/>
<path d="M0 0 C3.84801014 2.31539797 6.36841628 5.29933256 8.375 9.3125 C8.64293243 12.88980393 8.60660917 16.47628879 8.625 20.0625 C8.645625 21.0525 8.66625 22.0425 8.6875 23.0625 C8.7217184 29.46134049 8.21748409 33.98489862 3.91015625 39.02734375 C-0.09047967 42.34882662 -0.09047967 42.34882662 -2.63671875 42.17578125 C-9.92434135 39.01160719 -13.88275336 26.1350332 -16.625 19.3125 C-17.64452509 16.47671722 -18.59024665 13.62275013 -19.5 10.75 C-19.715354 10.07122803 -19.93070801 9.39245605 -20.15258789 8.69311523 C-21.15749706 5.37462635 -21.625 2.81962755 -21.625 -0.6875 C-15.03262199 -2.88495934 -6.36186979 -2.98250228 0 0 Z " fill="#FAFAFA" transform="translate(807.625,264.6875)"/>
<path d="M0 0 C3.56196711 -0.03554332 7.1197653 -0.06041267 10.68188477 -0.02905273 C11.92260742 -0.05290039 13.16333008 -0.07674805 14.44165039 -0.10131836 C15.63338867 -0.09938477 16.82512695 -0.09745117 18.05297852 -0.09545898 C19.14408936 -0.09618408 20.2352002 -0.09690918 21.359375 -0.09765625 C24.24438477 0.53344727 24.24438477 0.53344727 26.60400391 2.88525391 C28.61438141 6.13076138 28.79251099 7.77486745 28.24438477 11.53344727 C25.97967888 16.16580021 25.97967888 16.16580021 23.24438477 17.53344727 C19.12543972 17.82999495 14.99775058 17.8114676 10.86938477 17.84594727 C9.14461914 17.88945312 9.14461914 17.88945312 7.38500977 17.93383789 C6.27899414 17.9422168 5.17297852 17.9505957 4.03344727 17.95922852 C3.01976074 17.97381104 2.00607422 17.98839355 0.96166992 18.00341797 C-2.46680147 17.41044336 -3.62663611 16.22728936 -5.75561523 13.53344727 C-6.25170898 11.31469727 -6.25170898 11.31469727 -6.19311523 9.03344727 C-6.19182617 8.28063477 -6.19053711 7.52782227 -6.18920898 6.75219727 C-5.41755089 2.80353242 -4.03244091 0.78062226 0 0 Z " fill="#F7F7F7" transform="translate(374.755615234375,188.466552734375)"/>
</svg>
