<?xml version="1.0" encoding="UTF-8"?>
<svg version="1.1" xmlns="http://www.w3.org/2000/svg" width="1000" height="1000">
<path d="M0 0 C4.04335927 0.12252604 5.88838021 1.61513928 8.625 4.375 C9.756036 5.57768534 10.88128295 6.78584737 12 8 C12.78697266 8.76183594 12.78697266 8.76183594 13.58984375 9.5390625 C20.16230065 16.34820068 23.08440852 26.7098695 23.3125 35.875 C23.41232471 40.16800271 23.41232471 40.16800271 25.43359375 43.7578125 C27.19247787 45.02253931 27.19247787 45.02253931 29.015625 45.875 C31.81658828 47.46294769 33.75140437 49.70718086 36 52 C37.66898657 53.39741371 39.35723003 54.77210105 41.0625 56.125 C46.28429469 60.34882047 51.22762651 64.79908471 56.14453125 69.3671875 C58.66303899 71.68931365 61.22307741 73.94538536 63.8125 76.1875 C67.9277322 79.82732631 71.48884812 83.78325778 75 88 C76.10152226 89.31472012 77.20555236 90.62734459 78.3125 91.9375 C78.78300781 92.50339844 79.25351562 93.06929688 79.73828125 93.65234375 C80.97950473 95.13445384 80.97950473 95.13445384 83 96 C84.0064275 97.66279327 85.00585407 99.32983484 86 101 C86.98643333 102.01338506 87.98748584 103.01267276 89 104 C89.90660786 105.03230276 90.80197845 106.07455324 91.6875 107.125 C94.00959906 109.86461933 96.39393259 112.53285728 98.8125 115.1875 C102.890258 119.74453206 106.50530455 124.56908269 110.1171875 129.49609375 C111.79429548 131.7264386 113.51559945 133.5543515 115.5625 135.4375 C117 137 117 137 118 140 C118.78375 140.78375 119.5675 141.5675 120.375 142.375 C122.80982136 144.80982136 124.28153191 147.05405471 126 150 C126.66 150.33 127.32 150.66 128 151 C128.66666667 152.66666667 129.33333333 154.33333333 130 156 C130.66 156.33 131.32 156.66 132 157 C132 157.99 132 158.98 132 160 C132.66 160 133.32 160 134 160 C135.19024438 162.14243988 136.37987306 164.28518842 137.56640625 166.4296875 C138.47929267 168.06641574 139.40268454 169.69736039 140.33984375 171.3203125 C148.2805635 185.17433419 148.2805635 185.17433419 147 193 C144.0522583 198.47933164 139.75845506 201.08655633 134.0234375 203.1015625 C125.42316849 205.65719799 116.71533969 207.66092826 107.9375 209.5 C81.85395421 215.02392193 56.99130785 224.72825844 35 240 C35.85658203 239.70996094 35.85658203 239.70996094 36.73046875 239.4140625 C66.43406583 229.8749105 97.214944 236.07494363 124.625 249.75 C125.40875 250.1625 126.1925 250.575 127 251 C125.51697598 255.44907205 121.91714499 257.74579392 118 260 C117.34 260 116.68 260 116 260 C116 260.66 116 261.32 116 262 C116.804375 262.2475 117.60875 262.495 118.4375 262.75 C140.67240406 270.55172072 159.76346282 285.33366561 175.1875 302.93359375 C176.41270953 304.33043823 177.68616727 305.68616727 179 307 C180 308.66666667 181 310.33333333 182 312 C182.66 312.66 183.32 313.32 184 314 C185.07347198 315.64636118 186.11164457 317.31596972 187.125 319 C187.66382813 319.886875 188.20265625 320.77375 188.7578125 321.6875 C190 324 190 324 190 326 C190.66 326 191.32 326 192 326 C195.92883701 333.50407869 199.35284363 340.95072815 202 349 C202.25394531 349.763125 202.50789062 350.52625 202.76953125 351.3125 C203.57443543 353.86064586 204.28721335 356.42440016 205 359 C205.33056396 360.14734619 205.66112793 361.29469238 206.00170898 362.47680664 C208.95708004 373.34858657 209.65315099 383.74536371 209.57641602 394.98266602 C209.56256049 397.80019854 209.59676419 400.61438608 209.63476562 403.43164062 C209.71109286 421.53066327 205.5724425 438.48662566 198.5 455.125 C198.07332031 456.13304687 197.64664063 457.14109375 197.20703125 458.1796875 C196.80871094 459.11039063 196.41039062 460.04109375 196 461 C195.67386719 461.76570313 195.34773437 462.53140625 195.01171875 463.3203125 C194.34478195 464.88176642 193.67311789 466.44120067 193 468 C192.34 468 191.68 468 191 468 C189.92474806 470.65228812 188.90543849 473.28368454 188 476 C187.34 476 186.68 476 186 476 C185.731875 476.72574219 185.46375 477.45148438 185.1875 478.19921875 C184.01329619 480.96864024 182.6605676 483.30919434 181 485.8125 C180.484375 486.60269531 179.96875 487.39289063 179.4375 488.20703125 C178.7259375 489.09455078 178.7259375 489.09455078 178 490 C177.34 490 176.68 490 176 490 C175.67 490.99 175.34 491.98 175 493 C174.34 493 173.68 493 173 493 C173 493.99 173 494.98 173 496 C171.63671875 497.47265625 171.63671875 497.47265625 169.6875 499.0625 C166.3077149 501.87997409 163.07760954 504.79493012 159.875 507.8125 C149.0121071 517.65933139 137.33825137 524.96436643 124 531 C122.82050781 531.54527344 121.64101563 532.09054687 120.42578125 532.65234375 C109.65837508 537.30755896 98.45719141 539.67212542 87 542 C86.23236328 542.17958252 85.46472656 542.35916504 84.67382812 542.54418945 C81.26451099 543.12537965 77.89436458 543.2195701 74.4453125 543.2734375 C73.35037727 543.29222961 73.35037727 543.29222961 72.23332214 543.31140137 C55.22960082 543.546297 39.39960369 543.03180914 23 538 C21.81688232 537.64711914 21.81688232 537.64711914 20.60986328 537.28710938 C10.77988584 534.28918305 1.8621571 530.24177713 -7 525 C-8.09054687 524.3709375 -9.18109375 523.741875 -10.3046875 523.09375 C-17.77776279 518.66265595 -24.46804634 513.71892406 -31 508 C-31.50450684 507.56252441 -32.00901367 507.12504883 -32.52880859 506.67431641 C-38.52753942 501.4484168 -44.04081938 496.18671519 -48.6953125 489.6796875 C-49.91155808 487.86420568 -49.91155808 487.86420568 -52 487 C-53.03327934 485.35375834 -54.02708704 483.68262241 -55 482 C-56.28330615 480.07772551 -57.57548257 478.16135249 -58.875 476.25 C-65.38487397 466.44955105 -69.55985903 457.10962022 -73.30664062 446.00488281 C-74.23889537 443.30922226 -75.27914499 440.65826832 -76.3125 438 C-77.72904056 434.12345897 -78.48879696 430.59622646 -78.76416016 426.48461914 C-79.01932133 423.79644604 -79.5000931 421.20726944 -80.00390625 418.5546875 C-81.13429317 411.86452817 -81.34283046 405.33709342 -81.3125 398.5625 C-81.31121094 397.35343994 -81.30992187 396.14437988 -81.30859375 394.89868164 C-81.20852673 385.41170226 -80.25327369 376.24469539 -78.65625 366.90234375 C-77.91708025 363.16644683 -77.91708025 363.16644683 -78 360 C-80.48625727 365.69702544 -81.1426891 371.44354749 -82 377.5625 C-82.17370117 378.79669678 -82.34740234 380.03089355 -82.52636719 381.30249023 C-84.83256293 398.37720868 -86.25557199 415.57545801 -86.03442383 432.81347656 C-85.95106438 439.82178835 -86.17365844 446.8093219 -86.4375 453.8125 C-86.47689697 454.92898926 -86.51629395 456.04547852 -86.55688477 457.19580078 C-86.59869873 458.25138184 -86.6405127 459.30696289 -86.68359375 460.39453125 C-86.72025146 461.33143799 -86.75690918 462.26834473 -86.79467773 463.23364258 C-87.01300074 466.17516221 -87.515087 469.09052203 -88 472 C-210.1 472 -332.2 472 -458 472 C-457.67 470.68 -457.34 469.36 -457 468 C-456.34 468 -455.68 468 -455 468 C-454.34 466.02 -453.68 464.04 -453 462 C-452.34 462 -451.68 462 -451 462 C-450.72800781 461.42894531 -450.45601563 460.85789062 -450.17578125 460.26953125 C-448.11982928 456.30106582 -445.52040473 452.68462117 -443 449 C-442.52691406 448.30519531 -442.05382812 447.61039063 -441.56640625 446.89453125 C-438.2535545 442.12677725 -438.2535545 442.12677725 -436 441 C-435.64421875 440.07960938 -435.64421875 440.07960938 -435.28125 439.140625 C-433.37313683 435.95267982 -430.8570554 435.22056851 -427.5 433.75 C-426.3346875 433.22921875 -425.169375 432.7084375 -423.96875 432.171875 C-421 431 -421 431 -419 431 C-419.53625 429.865625 -420.0725 428.73125 -420.625 427.5625 C-422.73035247 422.82924355 -424.51176968 418.001845 -426.25 413.125 C-426.52021973 412.37549072 -426.79043945 411.62598145 -427.06884766 410.85375977 C-428.14806594 407.7857955 -429 405.27665796 -429 402 C-430.61455078 402.58007812 -430.61455078 402.58007812 -432.26171875 403.171875 C-456.963437 412 -456.963437 412 -462 412 C-462.02578125 412.53625 -462.0515625 413.0725 -462.078125 413.625 C-463.21598098 429.34810082 -468.22108791 447.27764946 -476 461 C-476.89588566 462.60413745 -477.79171749 464.20830495 -478.6875 465.8125 C-479.10386719 466.54082031 -479.52023437 467.26914062 -479.94921875 468.01953125 C-481.12885848 470.11108811 -481.12885848 470.11108811 -482 473 C-482.66 473 -483.32 473 -484 473 C-484.309375 473.78375 -484.61875 474.5675 -484.9375 475.375 C-486 478 -486 478 -487 480 C-487.66 480 -488.32 480 -489 480 C-489 480.99 -489 481.98 -489 483 C-489.66 483 -490.32 483 -491 483 C-491.27328125 483.58007812 -491.5465625 484.16015625 -491.828125 484.7578125 C-498.297141 497.13519644 -510.91283118 508.39074022 -522.3046875 516.15625 C-524.52113207 517.67242657 -526.61331501 519.25114817 -528.73046875 520.8984375 C-533.05495759 524.15856178 -537.62520749 526.66253555 -542.4375 529.125 C-543.62956055 529.74955078 -543.62956055 529.74955078 -544.84570312 530.38671875 C-560.17093334 538.34237121 -577.46978731 545.44380285 -595 545 C-595 545.66 -595 546.32 -595 547 C-608.2 547 -621.4 547 -635 547 C-635 546.34 -635 545.68 -635 545 C-635.98097656 545.03351562 -636.96195313 545.06703125 -637.97265625 545.1015625 C-642.27015641 545.09509199 -646.25879804 544.32516158 -650.4375 543.375 C-651.21738281 543.1989624 -651.99726562 543.0229248 -652.80078125 542.84155273 C-664.42549492 540.08703169 -675.52223533 535.74013343 -686 530 C-687.56234375 529.17435547 -687.56234375 529.17435547 -689.15625 528.33203125 C-695.98901302 524.60017307 -702.32778459 520.47956833 -708.5625 515.8125 C-709.22910645 515.31355225 -709.89571289 514.81460449 -710.58251953 514.30053711 C-714.33646973 511.43141253 -717.72783271 508.42463387 -721 505 C-721.763125 504.236875 -722.52625 503.47375 -723.3125 502.6875 C-724.199375 501.800625 -725.08625 500.91375 -726 500 C-726.64453125 499.36707031 -727.2890625 498.73414063 -727.953125 498.08203125 C-737.82791507 488.33524772 -737.82791507 488.33524772 -740 482 C-740.66 482 -741.32 482 -742 482 C-742.94903868 480.33918231 -743.89762394 478.67810365 -744.84375 477.015625 C-745.60560884 475.68751972 -746.37626526 474.36441678 -747.15625 473.046875 C-750 468.2125 -750 468.2125 -750 466 C-750.66 466 -751.32 466 -752 466 C-753.25664978 463.09399739 -754 461.20395416 -754 458 C-754.66 458 -755.32 458 -756 458 C-756.79557327 455.98070145 -757.58626802 453.95948055 -758.375 451.9375 C-758.81585937 450.81214844 -759.25671875 449.68679688 -759.7109375 448.52734375 C-762.1155339 441.94749361 -763.78026349 435.1443256 -765.5625 428.375 C-765.78357422 427.54226563 -766.00464844 426.70953125 -766.23242188 425.8515625 C-766.44576172 425.04203125 -766.65910156 424.2325 -766.87890625 423.3984375 C-767.0704126 422.67317871 -767.26191895 421.94791992 -767.45922852 421.20068359 C-767.63768311 420.47445801 -767.8161377 419.74823242 -768 419 C-768.18320801 418.27603027 -768.36641602 417.55206055 -768.55517578 416.80615234 C-769.19452895 412.77282342 -769.20330913 408.78144177 -769.23828125 404.703125 C-769.246353 403.79608826 -769.25442474 402.88905151 -769.26274109 401.95452881 C-769.27655312 400.0313913 -769.28728812 398.10822957 -769.29516602 396.18505859 C-769.30659556 394.24976233 -769.32690095 392.31449528 -769.35668945 390.37939453 C-769.55288437 377.61028379 -768.52878628 366.27956239 -765 354 C-764.49602123 352.02184275 -763.99509956 350.04289822 -763.5 348.0625 C-762.04396136 342.87242678 -760.14032291 337.94330807 -758 333 C-757.60683594 332.09121094 -757.21367188 331.18242188 -756.80859375 330.24609375 C-753.52630607 322.84808483 -750.02464265 315.68327352 -745.25 309.125 C-742.89499568 306.18113779 -742.89499568 306.18113779 -742 303 C-740.66666667 301.66666667 -739.33333333 300.33333333 -738 299 C-737.67 298.01 -737.34 297.02 -737 296 C-735.71340837 294.62150897 -734.37086915 293.29470975 -733 292 C-730.47009244 289.49990616 -727.98118106 286.97982827 -725.5546875 284.37890625 C-714.15412861 272.39668619 -700.79920754 262.39960377 -686 255 C-684.91332031 254.35289062 -683.82664062 253.70578125 -682.70703125 253.0390625 C-678.93214488 250.86675097 -675.05322918 249.39595889 -670.9375 248 C-670.18927979 247.74436279 -669.44105957 247.48872559 -668.67016602 247.2253418 C-667.15284312 246.71225069 -665.63389332 246.20394316 -664.11328125 245.70068359 C-662.27892139 245.09247971 -660.45129252 244.46404683 -658.625 243.83203125 C-621.99750543 232.11661939 -580.09224684 237.12567402 -546 254 C-543.36324639 255.45893249 -540.79720264 256.97672502 -538.25 258.5859375 C-535.20778004 260.49788824 -532.06489195 262.20423306 -528.91015625 263.921875 C-527.22788102 264.87138004 -525.60730276 265.92846483 -524 267 C-524 267.66 -524 268.32 -524 269 C-523.15115234 269.38865234 -523.15115234 269.38865234 -522.28515625 269.78515625 C-513.4692098 274.47192436 -505.58584141 282.56275704 -499 290 C-499 290.66 -499 291.32 -499 292 C-486.39763263 285.63347348 -486.39763263 285.63347348 -477 276 C-477.72316406 275.72800781 -478.44632812 275.45601563 -479.19140625 275.17578125 C-481.94119341 274.02461861 -484.37589333 272.70905584 -486.9375 271.1875 C-487.96746094 270.5790625 -488.99742187 269.970625 -490.05859375 269.34375 C-491.37243512 268.56256608 -492.68623162 267.78130667 -494 267 C-496.8346313 265.318821 -499.67001522 263.63892511 -502.50610352 261.96020508 C-504.48281055 260.78978432 -506.45857943 259.61777751 -508.43334961 258.4440918 C-509.8121228 257.62678589 -509.8121228 257.62678589 -511.21875 256.79296875 C-512.04310547 256.3033667 -512.86746094 255.81376465 -513.71679688 255.30932617 C-515.77997145 254.12617762 -517.86082532 253.03796636 -520 252 C-520 251.34 -520 250.68 -520 250 C-520.81984375 249.76925781 -521.6396875 249.53851563 -522.484375 249.30078125 C-526.75696756 247.719922 -530.39298789 245.58577035 -534.25 243.1875 C-534.96929688 242.76146484 -535.68859375 242.33542969 -536.4296875 241.89648438 C-540.40684641 239.43496561 -542.86295172 237.79799919 -544 233 C-544.66 233 -545.32 233 -546 233 C-546.29132813 232.39414062 -546.58265625 231.78828125 -546.8828125 231.1640625 C-549.12941134 226.57195796 -551.47639824 222.14893058 -554.1875 217.8125 C-556.59030554 213.90253622 -558.02722982 210.47474283 -559 206 C-553.24074683 206.44953447 -547.71010117 207.4327455 -542.078125 208.69921875 C-541.36579712 208.85826691 -540.65346924 209.01731506 -539.91955566 209.18118286 C-536.93812052 209.8497569 -533.95796527 210.52281615 -530.98193359 211.21508789 C-528.78760005 211.72310157 -526.58975972 212.21247421 -524.390625 212.69921875 C-523.7228302 212.85952072 -523.0550354 213.01982269 -522.36700439 213.1849823 C-518.23175398 214.0828928 -515.72873371 214.03787809 -512 212 C-510.22976371 210.67829434 -508.50063212 209.30007976 -506.8125 207.875 C-502.21352313 204 -502.21352313 204 -500 204 C-499.67 203.01 -499.34 202.02 -499 201 C-497.37667033 199.61423077 -495.71275535 198.27358732 -494 197 C-498.318677 195.2559189 -502.52864302 193.81874227 -507.0625 192.75 C-513.34536803 191.23954068 -519.50797464 189.38629361 -525.6875 187.5 C-526.66146729 187.20319336 -527.63543457 186.90638672 -528.63891602 186.60058594 C-565.80921406 175.19078594 -565.80921406 175.19078594 -575 166 C-579.34811097 164.45400499 -583.62396091 163.7245962 -588.1875 163.0625 C-592.45832848 162.44058186 -596.57774575 161.66438833 -600.75 160.5625 C-606.05360652 159.17625174 -611.38090888 158.18175345 -616.78125 157.27246094 C-624.73684568 155.9149585 -632.63496087 154.27798362 -640.53393555 152.62548828 C-641.55914307 152.41520996 -642.58435059 152.20493164 -643.640625 151.98828125 C-644.55360352 151.79790283 -645.46658203 151.60752441 -646.40722656 151.41137695 C-650.92813989 150.69407573 -653.115261 150.37223426 -656.9453125 153.08984375 C-658.01572413 154.02718806 -659.07512573 154.97720868 -660.125 155.9375 C-661.27913822 156.95534593 -662.4340991 157.97225975 -663.58984375 158.98828125 C-664.16331543 159.4982666 -664.73678711 160.00825195 -665.32763672 160.53369141 C-667.72433572 162.6350891 -670.20324907 164.62841142 -672.6875 166.625 C-676.16081776 169.44769628 -679.51658079 172.34747812 -682.8125 175.375 C-687.84318746 179.95851524 -693.15487005 184.11514073 -698.5234375 188.2890625 C-701.73181371 190.78367709 -704.90643301 193.31441735 -708.0625 195.875 C-708.89910156 196.55304688 -709.73570312 197.23109375 -710.59765625 197.9296875 C-713.05235451 199.99289256 -713.05235451 199.99289256 -715.3828125 202.38671875 C-720.10316063 207.10002158 -725.25073495 211.33369047 -730.35839844 215.61865234 C-731.72988303 216.77270645 -733.08914883 217.94126121 -734.4453125 219.11328125 C-737.63934307 221.73739656 -739.78027557 223.32466531 -744 223.375 C-745.485 223.189375 -745.485 223.189375 -747 223 C-748.01705701 225.52902121 -749.02324632 228.06056757 -750 230.60546875 C-750.33 231.45753906 -750.66 232.30960938 -751 233.1875 C-751.33 234.04730469 -751.66 234.90710938 -752 235.79296875 C-753.27681949 238.61094927 -754.33948908 239.74914394 -757.2421875 240.8515625 C-758.11101563 241.10679687 -758.97984375 241.36203125 -759.875 241.625 C-760.73867188 241.88539063 -761.60234375 242.14578125 -762.4921875 242.4140625 C-765 243 -765 243 -769 243 C-768.40484068 239.42904407 -767.44142621 236.50733663 -765.875 233.25 C-763.2356152 227.60294415 -760.85202673 221.87295793 -758.49951172 216.10253906 C-755.52488825 208.80848243 -752.3832042 201.60719456 -749.0859375 194.453125 C-747.9280512 191.94224119 -747.9280512 191.94224119 -747 189 C-745.48019531 188.96132813 -745.48019531 188.96132813 -743.9296875 188.921875 C-742.57808403 188.86555819 -741.22652319 188.80821167 -739.875 188.75 C-739.20984375 188.73582031 -738.5446875 188.72164062 -737.859375 188.70703125 C-730.15631282 188.32943016 -726.12215573 184.3164712 -721 179 C-718.62661323 176.72588036 -716.21948246 174.48846854 -713.8125 172.25 C-713.18408203 171.66089844 -712.55566406 171.07179688 -711.90820312 170.46484375 C-711.30556641 169.90410156 -710.70292969 169.34335937 -710.08203125 168.765625 C-709.53780518 168.25805664 -708.9935791 167.75048828 -708.43286133 167.22753906 C-707 166 -707 166 -705 165 C-707.26921536 164.86510609 -709.5407067 164.76806005 -711.8125 164.6875 C-713.07707031 164.62949219 -714.34164062 164.57148438 -715.64453125 164.51171875 C-716.75183594 164.67285156 -717.85914063 164.83398438 -719 165 C-720.87046304 167.42163535 -720.87046304 167.42163535 -722 170 C-722.66 170 -723.32 170 -724 170 C-725.20628008 172.33214148 -726.1654738 174.49642139 -727 177 C-729.97 177 -732.94 177 -736 177 C-735.979375 176.13117188 -735.95875 175.26234375 -735.9375 174.3671875 C-735.87586051 167.6480836 -735.87586051 167.6480836 -738.7421875 161.8359375 C-741.74413289 159.6037217 -744.44900975 158.18366342 -748 157 C-748 154.69 -748 152.38 -748 150 C-730.74389182 147.62092187 -713.57236126 145.55640813 -696.18359375 144.39453125 C-690.54406745 144.02773517 -690.54406745 144.02773517 -685 143 C-683.08255407 140.55690423 -683.08255407 140.55690423 -682 138 C-682.86568604 137.72599365 -683.73137207 137.4519873 -684.62329102 137.16967773 C-687.87226627 136.04424643 -690.91335091 134.73927726 -694.02734375 133.28515625 C-695.71053711 132.50301758 -695.71053711 132.50301758 -697.42773438 131.70507812 C-698.58595703 131.16302734 -699.74417969 130.62097656 -700.9375 130.0625 C-710.91103816 125.40169213 -710.91103816 125.40169213 -721 121 C-722.31411558 120.42031537 -723.62683471 119.83744406 -724.9375 119.25 C-729.32528369 117.29400004 -733.72395876 115.36342919 -738.125 113.4375 C-738.79394287 113.14456055 -739.46288574 112.85162109 -740.15209961 112.54980469 C-740.80573486 112.26395508 -741.45937012 111.97810547 -742.1328125 111.68359375 C-742.77379883 111.3985498 -743.41478516 111.11350586 -744.07519531 110.81982422 C-745.36079256 110.27225502 -746.66345923 109.76319055 -747.97949219 109.29345703 C-752.71875271 107.54657492 -752.71875271 107.54657492 -754.2421875 104.5859375 C-754.49226562 103.73257813 -754.74234375 102.87921875 -755 102 C-756.02952044 100.53306673 -757.07181522 99.07503702 -758.125 97.625 C-762.25535931 91.00840499 -761.54371329 84.55157343 -761 77 C-759.91460938 76.98582031 -758.82921875 76.97164063 -757.7109375 76.95703125 C-756.26558387 76.91010418 -754.82027269 76.86185695 -753.375 76.8125 C-752.66214844 76.80669922 -751.94929687 76.80089844 -751.21484375 76.79492188 C-745.56753423 76.56177607 -743.28660008 74.81473296 -739 71 C-736.46037386 69.92554279 -734.11621899 69.03750834 -731.5 68.25 C-730.86191406 68.04246094 -730.22382812 67.83492188 -729.56640625 67.62109375 C-725.74165471 66.40874919 -721.97003294 65.56364665 -718 65 C-718.495 64.05125 -718.99 63.1025 -719.5 62.125 C-721 59 -721 59 -721 57 C-721.99 56.505 -721.99 56.505 -723 56 C-725 53 -725 53 -725 50 C-725.66 50 -726.32 50 -727 50 C-731.15178571 43.03571429 -731.15178571 43.03571429 -732 39 C-727.31580566 38.92320993 -722.78147352 38.98261405 -718.125 39.5 C-712.77295131 40.01008145 -707.43554446 40.21501138 -702.0625 40.3125 C-701.23314941 40.34214844 -700.40379883 40.37179687 -699.54931641 40.40234375 C-694.72578118 40.56360714 -694.72578118 40.56360714 -690.83203125 38.01171875 C-690.22746094 37.34785156 -689.62289062 36.68398438 -689 36 C-677.89247856 33.91925218 -665.42727391 36.87879553 -654.42236328 38.43334961 C-646.78885064 39.51118376 -639.18350784 40.43553249 -631.5 41.0625 C-624.33266953 41.65078438 -617.24244945 42.47110085 -610.125 43.5 C-601.4500046 44.7505543 -592.7937681 45.56486109 -584.0559082 46.22827148 C-575.96591266 46.86431251 -567.95189248 47.8487797 -559.9152832 48.96484375 C-553.71007341 49.81736009 -547.59243962 50.39275595 -541.328125 50.59375 C-538.50210406 51.08688117 -537.77704845 51.79431202 -536 54 C-535.66979499 56.92722276 -535.52609747 59.57496709 -535.5625 62.5 C-535.56950928 63.71079224 -535.56950928 63.71079224 -535.57666016 64.94604492 C-535.73975294 71.5738439 -537.16007109 76.99883635 -540 83 C-540.67468131 84.66343841 -541.34354242 86.32928588 -542 88 C-543.98 88 -545.96 88 -548 88 C-547.51789063 88.81984375 -547.03578125 89.6396875 -546.5390625 90.484375 C-545.90742187 91.56203125 -545.27578125 92.6396875 -544.625 93.75 C-543.99851562 94.81734375 -543.37203125 95.8846875 -542.7265625 96.984375 C-541.40227337 99.29738678 -540.15363154 101.59951417 -539 104 C-538.34 104 -537.68 104 -537 104 C-535.375 106 -535.375 106 -534 108 C-533.278125 107.62875 -532.55625 107.2575 -531.8125 106.875 C-528.26954318 105.77274677 -527.29644211 106.4400765 -524 108 C-522.38324367 108.97951502 -520.78038221 109.98212135 -519.1875 111 C-504.77204397 119.51741407 -488.20347164 125.81845893 -472 130 C-471.29311035 130.18473877 -470.5862207 130.36947754 -469.85791016 130.55981445 C-462.29653221 132.32299526 -454.85697136 132.26008274 -447.125 132.1875 C-445.85914063 132.18685547 -444.59328125 132.18621094 -443.2890625 132.18554688 C-436.10629951 132.15322444 -428.96056654 131.92005924 -421.7890625 131.5234375 C-408.61857724 130.80176265 -395.4366307 130.64824524 -382.25 130.4375 C-379.69140115 130.39418067 -377.13280733 130.35056279 -374.57421875 130.30664062 C-368.3828662 130.20099392 -362.19146223 130.09899956 -356 130 C-355.69586182 129.06051514 -355.39172363 128.12103027 -355.07836914 127.15307617 C-354.09687826 124.28326528 -352.96233999 121.92065914 -351.4375 119.3125 C-349.99076839 116.82686913 -348.91498379 114.74495138 -348 112 C-347.34 112 -346.68 112 -346 112 C-345.814375 111.34 -345.62875 110.68 -345.4375 110 C-341.67656001 102.15108175 -334.19001943 95.96695566 -328 90 C-327.45988281 89.46503906 -326.91976563 88.93007813 -326.36328125 88.37890625 C-310.15032264 73.30943087 -285.63806265 66.64567014 -264 67 C-256.63896991 67.3731721 -249.32130997 68.17256779 -242 69 C-241.27184082 69.07621582 -240.54368164 69.15243164 -239.79345703 69.23095703 C-231.3888429 70.11167395 -223.51256947 71.78022318 -215.40625 74.06640625 C-212.66158966 74.81866981 -209.98410879 75.43468506 -207.1875 75.9375 C-201.58978717 76.98002705 -196.150077 78.57660583 -190.68237305 80.14819336 C-186.85301262 81.24139292 -183.01434605 82.28559557 -179.14453125 83.2265625 C-178.06909058 83.49073975 -178.06909058 83.49073975 -176.97192383 83.76025391 C-174.74384974 84.17747803 -174.74384974 84.17747803 -171.75 82.875 C-165.27577985 81.36434863 -158.39698573 84.00624418 -152.73046875 87.33203125 C-151 89 -151 89 -150.1171875 91.53125 C-149.19368321 94.2373717 -149.19368321 94.2373717 -146.3828125 95.40625 C-145.30773437 95.7671875 -144.23265625 96.128125 -143.125 96.5 C-141.37123047 97.11681641 -141.37123047 97.11681641 -139.58203125 97.74609375 C-138.39996094 98.15988281 -137.21789062 98.57367188 -136 99 C-133.93064206 99.83741545 -131.86767268 100.69085088 -129.8125 101.5625 C-126.17105503 103.10532274 -122.51687298 104.55407676 -118.8125 105.9375 C-111.83360667 108.72456207 -105.12765587 112.53932124 -101 119 C-101 119.66 -101 120.32 -101 121 C-98.69 121 -96.38 121 -94 121 C-94.28875 120.25878906 -94.5775 119.51757812 -94.875 118.75390625 C-97.23111137 112.07007643 -98.44593721 106.06661904 -98.5625 99 C-98.58892578 98.28271729 -98.61535156 97.56543457 -98.64257812 96.82641602 C-98.61706377 92.95142358 -98.15864235 91.19608087 -95.69921875 88.15625 C-83.91863219 78.74541964 -66.03237777 73.85734398 -51 74 C-48.08337253 75.49105653 -47.18938519 76.58258363 -45.83349609 79.57104492 C-44.16996546 82.33003729 -44.16996546 82.33003729 -40.8137207 82.65942383 C-39.53070068 82.67513428 -38.24768066 82.69084473 -36.92578125 82.70703125 C-35.90003242 82.72971321 -35.90003242 82.72971321 -34.8535614 82.75285339 C-32.6728737 82.79578663 -30.49356848 82.80457234 -28.3125 82.8125 C-26.83264539 82.83564043 -25.35282377 82.86100484 -23.87304688 82.88867188 C-20.24872506 82.95157532 -16.62486572 82.98386981 -13 83 C-13.00636475 83.95777344 -13.01272949 84.91554688 -13.01928711 85.90234375 C-13.03382272 89.48874338 -13.00218664 93.07356109 -12.95727539 96.65966797 C-12.94421329 98.20551136 -12.94333 99.75151122 -12.95532227 101.29736328 C-13.29473549 111.72981614 -13.29473549 111.72981614 -8.72265625 120.7265625 C-7.50295836 121.84134181 -6.26363122 122.93527844 -5 124 C-3.80890625 125.43472656 -3.80890625 125.43472656 -2.59375 126.8984375 C2.93901375 133.54490749 2.93901375 133.54490749 11 136 C14.67425892 136.11965022 18.3259495 136.11958935 22 136 C21.67 133.36 21.34 130.72 21 128 C19.906875 128.061875 18.81375 128.12375 17.6875 128.1875 C14 128 14 128 12.0625 126.625 C11 125 11 125 11 123 C10.34 123 9.68 123 9 123 C7.3125 121.25 7.3125 121.25 6 119 C6.35498882 115.21345255 8.02715847 111.93809718 10.75 109.3125 C14.05150435 105.9192872 16.45188335 101.97506198 19 98 C17.60886005 96.72403068 16.21185587 95.45445352 14.8125 94.1875 C14.03519531 93.47980469 13.25789062 92.77210938 12.45703125 92.04296875 C10.04408914 89.92303961 10.04408914 89.92303961 7.19921875 88.36328125 C6.47347656 87.91339844 5.74773438 87.46351563 5 87 C5 86.34 5 85.68 5 85 C4.33355469 84.75894531 3.66710937 84.51789063 2.98046875 84.26953125 C-0.74979782 82.68062347 -4.17764589 80.70857615 -7.6875 78.6875 C-13.70888823 75.26559409 -19.74506591 71.97981839 -26 69 C-26.5986084 68.71302246 -27.1972168 68.42604492 -27.81396484 68.13037109 C-39.48582183 62.54250855 -51.23331119 57.0907304 -63.25390625 52.2890625 C-70.46752161 49.40672004 -77.57465366 46.40325885 -84.5 42.875 C-85.46208374 42.40622437 -85.46208374 42.40622437 -86.44360352 41.92797852 C-89.44598791 40.34523345 -90.81899398 39.54769926 -91.90625 36.2578125 C-91.9371875 35.51273437 -91.968125 34.76765625 -92 34 C-91.34 34 -90.68 34 -90 34 C-89.67 33.01 -89.34 32.02 -89 31 C-80.42860136 23.6251164 -68.33839507 18.01063272 -57.796875 14.06640625 C-55.47107573 13.17961407 -53.18286576 12.24590348 -50.890625 11.27734375 C-50.14796387 10.96482666 -49.40530273 10.65230957 -48.64013672 10.33032227 C-47.17141602 9.71088876 -45.70419041 9.0878935 -44.23876953 8.46069336 C-31.84622341 3.27469794 -31.84622341 3.27469794 -26.5 5.375 C-25.675 5.91125 -24.85 6.4475 -24 7 C-24 7.66 -24 8.32 -24 9 C-23.34 9.226875 -22.68 9.45375 -22 9.6875 C-18.07265467 11.40571358 -14.58739822 13.66774607 -11 16 C-9.85252535 14.37615858 -8.7070709 12.75088944 -7.5625 11.125 C-6.92441406 10.22007812 -6.28632812 9.31515625 -5.62890625 8.3828125 C-4.00481862 6.12261419 -4.00481862 6.12261419 -3 4 C-2.34 4 -1.68 4 -1 4 C-0.67 2.68 -0.34 1.36 0 0 Z M66 146 C64.3876314 150.83710579 65.81178081 153.54541093 68 158 C68.556875 159.134375 69.11375 160.26875 69.6875 161.4375 C70.120625 162.283125 70.55375 163.12875 71 164 C71.66 164 72.32 164 73 164 C73.13148438 164.83917969 73.13148438 164.83917969 73.265625 165.6953125 C74.79461953 170.49375278 78.82627492 174.17572207 82 178 C82.78375 179.051875 83.5675 180.10375 84.375 181.1875 C93.05050989 190.48268917 104.42691722 195.73344281 117.09375 196.203125 C118.56243271 196.22414372 120.03120318 196.23967454 121.5 196.25 C122.23347656 196.270625 122.96695313 196.29125 123.72265625 196.3125 C129.39545806 196.3530925 133.59503902 195.24463025 137.875 191.25 C140.74957612 185.50084775 138.50445415 179.68281821 136.65625 173.94140625 C136.4396875 173.30074219 136.223125 172.66007812 136 172 C135.34 172 134.68 172 134 172 C133.814375 171.154375 133.62875 170.30875 133.4375 169.4375 C130.39253966 162.15607311 123.83601669 157.59633922 117 154 C114.03524312 153.01174771 111.34654074 152.71881662 108.24829102 152.45458984 C98.09373501 151.5792151 88.2439756 149.795745 78.27880859 147.67675781 C77.25996582 147.46116211 76.24112305 147.24556641 75.19140625 147.0234375 C74.28592041 146.82669434 73.38043457 146.62995117 72.44750977 146.42724609 C69.7573512 145.88535788 69.7573512 145.88535788 66 146 Z M-486 214 C-487.37232284 215.06595557 -488.74717517 216.12866574 -490.125 217.1875 C-490.81851562 217.74179687 -491.51203125 218.29609375 -492.2265625 218.8671875 C-497.03899834 222.56801844 -502.01168722 226.05414807 -506.96923828 229.55737305 C-507.73220215 230.10176025 -508.49516602 230.64614746 -509.28125 231.20703125 C-509.97283203 231.6966333 -510.66441406 232.18623535 -511.37695312 232.69067383 C-513.13462937 233.92313154 -513.13462937 233.92313154 -514 236 C-508.57033672 234.34634034 -503.52225617 232.04863557 -498.375 229.6875 C-492.82459373 227.16057547 -487.28056115 224.66015241 -481.625 222.375 C-474.89448148 219.62334927 -468.46977523 216.30992367 -462 213 C-460.66753303 212.33160342 -459.33463924 211.66404844 -458 211 C-468.95724221 203.69517186 -476.48816125 206.0192692 -486 214 Z M-111.75 217.5625 C-113.20996126 218.27608934 -114.67089586 218.98769085 -116.1328125 219.69726562 C-119.02001738 221.10083757 -121.90127737 222.51568829 -124.77929688 223.93798828 C-130.02104954 226.51641699 -135.32738161 228.95000403 -140.64160156 231.37475586 C-143.07749874 232.55357001 -145.37451304 233.76301307 -147.70605469 235.11938477 C-150.63859586 236.7936632 -153.46198833 237.91931152 -156.62890625 239.05078125 C-160.10485417 240.4423057 -163.39303019 242.17613479 -166.72290039 243.88330078 C-173.9166795 247.53135319 -181.28334934 250.80674825 -188.6484375 254.09179688 C-193.74740107 256.39295251 -198.47892948 258.69435426 -203 262 C-202.82062304 263.92739285 -202.82062304 263.92739285 -202 266 C-191.88051948 273.63285603 -177.20325407 275.14661448 -165 274 C-144.71220632 270.64412435 -124.8218593 258.82310223 -107 249 C-106.20948242 248.56768066 -105.41896484 248.13536133 -104.60449219 247.68994141 C-95.96484544 242.96301426 -87.39437809 238.15216745 -79 233 C-77.48992178 232.08667976 -75.97946655 231.17398275 -74.46875 230.26171875 C-72.81236186 229.25804043 -71.15611315 228.25413199 -69.5 227.25 C-68.69691406 226.76539307 -67.89382813 226.28078613 -67.06640625 225.78149414 C-66.31230469 225.32250732 -65.55820312 224.86352051 -64.78125 224.390625 C-64.10126953 223.97844727 -63.42128906 223.56626953 -62.72070312 223.14160156 C-60.8505439 221.98274532 -60.8505439 221.98274532 -59 220 C-59.32041397 217.39719432 -59.32041397 217.39719432 -60 215 C-64.84990099 213.22658629 -69.6154738 212.21961949 -74.6875 211.375 C-75.42677734 211.2409375 -76.16605469 211.106875 -76.92773438 210.96875 C-79.28106031 210.57214477 -81.62908613 210.27144418 -84 210 C-85.21018799 209.82633911 -85.21018799 209.82633911 -86.44482422 209.64916992 C-95.92710743 208.8886211 -103.52221068 213.44045363 -111.75 217.5625 Z M-454.875 222.4375 C-461.1956351 225.65840451 -467.58305912 228.67481511 -474.0625 231.5625 C-475.3294873 232.12747192 -475.3294873 232.12747192 -476.62207031 232.70385742 C-478.29085236 233.44791781 -479.9596349 234.19197708 -481.62841797 234.93603516 C-490.85507053 239.07539606 -499.99301963 243.40114179 -509 248 C-505.49551883 251.0438406 -501.56233015 252.42191305 -497.25 253.9375 C-488.51607067 257.09914325 -488.51607067 257.09914325 -484.5 259.1875 C-481.52480603 260.72822545 -478.59789054 261.95470106 -475.453125 263.09375 C-472.17778997 264.30374638 -468.93204279 265.58535039 -465.6875 266.875 C-464.49511719 267.34679687 -463.30273438 267.81859375 -462.07421875 268.3046875 C-458.92473955 269.58498298 -455.84053808 270.98143821 -452.75390625 272.40625 C-447.00262526 275.04074923 -441.15382691 277.35730489 -435.25 279.625 C-429.12114787 281.9902415 -423.02509271 284.38137315 -417 287 C-415.19033576 287.73617634 -413.37815057 288.46621416 -411.5625 289.1875 C-410.26505859 289.70376953 -410.26505859 289.70376953 -408.94140625 290.23046875 C-408.30074219 290.48441406 -407.66007812 290.73835938 -407 291 C-404.72700219 288.72700219 -405.76720105 283.42388636 -405.75 280.375 C-405.729375 279.48425781 -405.70875 278.59351563 -405.6875 277.67578125 C-405.65398531 271.98666272 -406.36722179 268.05770552 -409 263 C-409.66 263 -410.32 263 -411 263 C-411.0825 262.443125 -411.165 261.88625 -411.25 261.3125 C-412.23895541 258.26322081 -413.84757466 256.34810037 -416 254 C-416.66 254 -417.32 254 -418 254 C-418.24492187 253.44699219 -418.48984375 252.89398438 -418.7421875 252.32421875 C-422.80274918 244.82100695 -429.45290129 238.38632845 -435.1484375 232.078125 C-437.40030404 229.55071361 -439.54870668 226.94544044 -441.67578125 224.3125 C-443.07953362 222.72724769 -443.07953362 222.72724769 -446 222 C-446 221.01 -446 220.02 -446 219 C-449.2975378 219 -451.99856821 220.94679953 -454.875 222.4375 Z M-404.125 225.75 C-405.05570312 226.63171875 -405.98640625 227.5134375 -406.9453125 228.421875 C-409.28861706 230.75697468 -409.28861706 230.75697468 -408.8046875 233.328125 C-408.53914063 233.87984375 -408.27359375 234.4315625 -408 235 C-407.34 235 -406.68 235 -406 235 C-405.34 236.98 -404.68 238.96 -404 241 C-403.34 241 -402.68 241 -402 241 C-401.67 242.65 -401.34 244.3 -401 246 C-400.34 246 -399.68 246 -399 246 C-399 246.66 -399 247.32 -399 248 C-394.54647129 246.03551043 -391.20638369 242.91519348 -387.53515625 239.77734375 C-384.75867785 237.83081421 -383.40284743 236.88622699 -380 237 C-377.69063791 238.75203208 -375.8173762 240.38801592 -373.8125 242.4375 C-370.4593451 246.37907444 -370.4593451 246.37907444 -366 248 C-366 242.72 -366 237.44 -366 232 C-373.10111241 229.06876456 -380.23183908 226.54113883 -387.5625 224.25 C-388.55830078 223.93417969 -389.55410156 223.61835938 -390.58007812 223.29296875 C-398.13716137 220.62715693 -398.13716137 220.62715693 -404.125 225.75 Z M-292 277 C-298.62187916 279.70895057 -303.96154394 284.09764114 -308 290 C-308 290.99 -308 291.98 -308 293 C-308.66 293 -309.32 293 -310 293 C-315.46258205 306.31504375 -315.46258205 317.68495625 -310 331 C-309.34 331 -308.68 331 -308 331 C-308 331.99 -308 332.98 -308 334 C-307.34 334 -306.68 334 -306 334 C-305.74734375 334.7528125 -305.4946875 335.505625 -305.234375 336.28125 C-302.12234249 343.13560007 -294.82289138 346.33930697 -288.125 348.9375 C-279.36246487 351.81108218 -271.689375 352.08955555 -263 349 C-266.16954589 347.98671807 -269.17442763 347.91617812 -272.4831543 347.86230469 C-282.36005019 347.62573233 -289.15720226 345.08947365 -296.8125 338.625 C-297.534375 337.75875 -298.25625 336.8925 -299 336 C-299.51304687 335.3915625 -300.02609375 334.783125 -300.5546875 334.15625 C-303.95109969 329.93104823 -305.88005201 326.39611306 -307 321 C-307.20625 320.236875 -307.4125 319.47375 -307.625 318.6875 C-309.22792479 307.19987234 -307.59517562 297.23022919 -301.0859375 287.5625 C-297.90442738 283.65412802 -294.17988162 280.77710956 -290 278 C-290.66 277.67 -291.32 277.34 -292 277 Z M-249 283 C-246.72678491 286.40982264 -245.3979819 286.98543358 -241.75 288.6875 C-232.81557512 293.00473408 -224.29828975 297.9878024 -215.8125 303.125 C-210.63328161 306.25622681 -205.32779887 309.13118523 -200 312 C-198.12431041 313.01956571 -196.24930428 314.04038985 -194.375 315.0625 C-193.55773437 315.50722656 -192.74046875 315.95195313 -191.8984375 316.41015625 C-189 318 -189 318 -187.22514343 319.23184204 C-180.41792457 323.65338802 -174.38072709 323.65607906 -166.43359375 323.48828125 C-165.15895767 323.48120651 -163.88432159 323.47413177 -162.57106018 323.46684265 C-159.21176677 323.44372042 -155.85423121 323.39895043 -152.49542236 323.34332275 C-149.05634604 323.29181362 -145.61708675 323.26926177 -142.17773438 323.24414062 C-135.4513447 323.18920568 -128.72577363 323.10567806 -122 323 C-125.21250692 321.35037191 -128.3687574 320.15038875 -131.8125 319.046875 C-132.96137695 318.67771973 -134.11025391 318.30856445 -135.29394531 317.92822266 C-136.51694336 317.53940918 -137.73994141 317.1505957 -139 316.75 C-140.87703613 316.14937744 -140.87703613 316.14937744 -142.79199219 315.53662109 C-151.03395395 312.90619935 -159.29754655 310.35496263 -167.60546875 307.94042969 C-171.83825052 306.69997914 -175.96179495 305.3081068 -180.07958984 303.72753906 C-187.69447875 300.84267141 -195.52260724 298.4290497 -203.3125 296.0625 C-209.3515311 294.22776361 -215.33038252 292.23470285 -221.31176758 290.22216797 C-227.04407229 288.30015631 -232.80126099 286.4950772 -238.59375 284.76171875 C-241 284 -241 284 -243 283 C-244.99960012 282.960008 -247.00047242 282.95653201 -249 283 Z M-691.30078125 328.87890625 C-694.91774376 333.48741398 -694.91774376 333.48741398 -696 339 C-696.66 339 -697.32 339 -698 339 C-697.71491796 342.14302949 -696.97880412 343.01923457 -694.59375 345.18359375 C-693.5728125 345.92738281 -692.551875 346.67117188 -691.5 347.4375 C-690.96262207 347.82929443 -690.42524414 348.22108887 -689.87158203 348.62475586 C-682.56238834 354.36226351 -682.56238834 354.36226351 -674 357 C-674 357.66 -674 358.32 -674 359 C-670.7 360.32 -667.4 361.64 -664 363 C-663.34 361.35 -662.68 359.7 -662 358 C-661.34 358 -660.68 358 -660 358 C-658.72763034 356.47529586 -658.72763034 356.47529586 -657.4375 354.5 C-649.93569928 344.18730558 -640.1611066 337.80372766 -628.22265625 333.796875 C-626.05639523 333.19872181 -626.05639523 333.19872181 -625 332 C-624.95919217 330.00041636 -624.95745644 327.99954746 -625 326 C-623.68 326 -622.36 326 -621 326 C-622.16255842 308.29203057 -622.16255842 308.29203057 -629 293 C-652.12789933 290.22465208 -677.86051708 312.06146194 -691.30078125 328.87890625 Z M-595 293 C-595.18175781 293.556875 -595.36351562 294.11375 -595.55078125 294.6875 C-595.80214844 295.450625 -596.05351563 296.21375 -596.3125 297 C-596.58707031 297.83402344 -596.86164063 298.66804688 -597.14453125 299.52734375 C-597.85059752 301.56816542 -598.6619871 303.57221936 -599.5 305.5625 C-602.0063976 312.04730649 -602.80987036 319.19925921 -604 326 C-598.39 326 -592.78 326 -587 326 C-587 326.66 -587 327.32 -587 328 C-581.10969143 327.93106964 -575.22008908 327.84307603 -569.33032227 327.73754883 C-567.32747236 327.70433273 -565.3245296 327.67629048 -563.3215332 327.65356445 C-560.43921406 327.61995766 -557.55774332 327.56763852 -554.67578125 327.51171875 C-553.78288895 327.50532883 -552.88999664 327.4989389 -551.970047 327.49235535 C-547.15378797 327.37892943 -543.9552018 327.06358733 -540 324 C-543.07537767 316.73239698 -550.61618966 311.89982606 -557.2734375 308.10546875 C-559 307 -559 307 -560.3984375 305.54296875 C-567.42331233 298.77510154 -582.74900283 293.24096815 -592.4453125 292.8671875 C-593.70988281 292.93292969 -593.70988281 292.93292969 -595 293 Z M44.3125 300.5 C43.31863281 300.7784375 42.32476563 301.056875 41.30078125 301.34375 C40.54152344 301.5603125 39.78226563 301.776875 39 302 C42.43890214 312.63076142 47.00409475 323.00818949 52 333 C53.299375 332.855625 54.59875 332.71125 55.9375 332.5625 C56.66839844 332.48128906 57.39929688 332.40007812 58.15234375 332.31640625 C60.01140229 332.18113386 60.01140229 332.18113386 61 331 C60.75175035 327.97135423 60.41001031 325.0081809 60 322 C59.88785156 321.04996094 59.77570312 320.09992188 59.66015625 319.12109375 C58.64715064 311.72132896 56.41766852 305.62662446 53 299 C49.7997785 299 47.38516529 299.63242392 44.3125 300.5 Z M90 301 C84.87144629 311.53812407 80.56524423 321.27489779 79 333 C80.38058594 333.38478516 80.38058594 333.38478516 81.7890625 333.77734375 C95.94588202 337.96218254 110.90040398 345.54354967 118.61328125 358.765625 C119.29970703 359.87164063 119.29970703 359.87164063 120 361 C120.66 361 121.32 361 122 361 C122 361.99 122 362.98 122 364 C122.66 364 123.32 364 124 364 C124.144375 364.78375 124.28875 365.5675 124.4375 366.375 C124.87798925 368.96421018 124.87798925 368.96421018 126 371 C132.34305183 370.66615517 136.82468273 367.34644576 142 364 C143.23943359 363.23042969 143.23943359 363.23042969 144.50390625 362.4453125 C148.77761621 359.72759908 152.11268654 357.26820251 155 353 C152.02026876 346.56378052 148.55290898 340.47246202 144 335 C143.34 335 142.68 335 142 335 C141.773125 334.278125 141.54625 333.55625 141.3125 332.8125 C137.18300519 323.96358254 125.63753836 316.22688048 117 312 C116.34 312 115.68 312 115 312 C115 311.34 115 310.68 115 310 C102.99073711 303.73679734 102.99073711 303.73679734 90 301 Z M-4.125 327.8125 C-9.02098275 332.79369764 -13.07611331 338.23473632 -17 344 C-14.92856799 348.03384128 -13.03384128 349.92856799 -9 352 C-8.48050781 351.40832031 -7.96101562 350.81664062 -7.42578125 350.20703125 C-3.7252714 346.0140321 -0.01715916 341.89162293 4 338 C4.556875 338.44730469 5.11375 338.89460938 5.6875 339.35546875 C10.62183009 343.26459174 15.60212806 346.76127684 21 350 C24.3 347.36 27.6 344.72 31 342 C29.53053837 336.12215348 27.98186565 330.42962968 24.875 325.1875 C23.2905102 322.49386734 22.64194803 320.93461956 22 318 C21.05583787 315.63959466 20.02863899 313.32561858 19 311 C11.30274576 311 1.00001674 322.85306073 -4.125 327.8125 Z M-444.24609375 315.8984375 C-445.08333984 316.29546875 -445.92058594 316.6925 -446.78320312 317.1015625 C-447.65912109 317.52179688 -448.53503906 317.94203125 -449.4375 318.375 C-450.30955078 318.7875 -451.18160156 319.2 -452.08007812 319.625 C-455.54701265 321.27719017 -458.79799665 322.8653311 -462 325 C-458.39816685 326.20061105 -455.22311412 326.02185426 -451.48828125 325.87890625 C-450.76005661 325.85529526 -450.03183197 325.83168427 -449.28153992 325.80735779 C-446.9583216 325.7308565 -444.63544807 325.6467744 -442.3125 325.5625 C-440.73634493 325.50926573 -439.16017309 325.45652542 -437.58398438 325.40429688 C-433.7224384 325.27525978 -429.86118434 325.13942375 -426 325 C-426 324.34 -426 323.68 -426 323 C-427.92587579 321.36860063 -429.84326717 319.86276775 -431.875 318.375 C-432.43058594 317.95476562 -432.98617188 317.53453125 -433.55859375 317.1015625 C-438.05398229 313.76522595 -439.31284322 313.55341922 -444.24609375 315.8984375 Z M-469 333 C-468.21162756 336.9418622 -467.26447493 340.55589476 -466.0625 344.375 C-464.64210026 348.90083643 -463.2885056 353.43533892 -462 358 C-456.7668494 357.50076566 -451.55001986 356.93141278 -446.33398438 356.27685547 C-444.32624999 356.03869953 -442.31170116 355.85930843 -440.296875 355.69140625 C-432.7360998 354.65956133 -429.27082398 351.86381167 -424.75 346 C-422.37584506 342.79400938 -420.27362167 339.82086502 -419 336 C-418.01 335.67 -417.02 335.34 -416 335 C-416 334.34 -416 333.68 -416 333 C-433.49 333 -450.98 333 -469 333 Z M-587 336 C-587 338.64 -587 341.28 -587 344 C-586.34 344 -585.68 344 -585 344 C-585 343.34 -585 342.68 -585 342 C-584.01 342 -583.02 342 -582 342 C-582 343.98 -582 345.96 -582 348 C-575.20791939 348.78474238 -571.55284057 346.35916225 -566.0625 342.5625 C-565.28326172 342.04623047 -564.50402344 341.52996094 -563.70117188 340.99804688 C-560.80387867 339.06389625 -560.80387867 339.06389625 -558 337 C-558 336.67 -558 336.34 -558 336 C-567.57 336 -577.14 336 -587 336 Z M-241 340 C-241.33 340.66 -241.66 341.32 -242 342 C-241.34 342 -240.68 342 -240 342 C-240.33 341.34 -240.66 340.68 -241 340 Z M-243 342 C-246.84588467 347.01637131 -248.01334427 353.07678448 -247.9921875 359.296875 C-246.99923495 366.47668576 -242.33110355 371.39145924 -237 376 C-232.05208613 378.29724572 -226.4282684 378.7153532 -221 378 C-220.01 377.34 -219.02 376.68 -218 376 C-218.7734375 375.98582031 -219.546875 375.97164062 -220.34375 375.95703125 C-227.41331259 375.63330128 -232.63884044 374.83022347 -238 370 C-242.77135289 363.97302793 -244.70863805 358.68599728 -244 351 C-243.45351566 347.96606971 -242.77353299 344.98362726 -242 342 C-242.33 342 -242.66 342 -243 342 Z M-74 348 C-75.14209817 349.78228936 -75.14209817 349.78228936 -76 352 C-75.67 353.32 -75.34 354.64 -75 356 C-74.01 353.36 -73.02 350.72 -72 348 C-72.66 348 -73.32 348 -74 348 Z M-715.3515625 379.67578125 C-716.32488026 383.16448045 -716.38111379 386.59335337 -716.375 390.1875 C-716.37628906 390.97108887 -716.37757813 391.75467773 -716.37890625 392.56201172 C-716.23005221 401.0213194 -714.29720769 408.89824073 -712 417 C-708.535 416.505 -708.535 416.505 -705 416 C-704.34 417.32 -703.68 418.64 -703 420 C-705.31 420.66 -707.62 421.32 -710 422 C-703.4558615 441.4663802 -703.4558615 441.4663802 -690 456 C-682.64611645 456.85808674 -679.07403274 454.70444587 -673.3125 450.3125 C-672.57966797 449.78205078 -671.84683594 449.25160156 -671.09179688 448.70507812 C-667.06752287 445.74765404 -663.32054486 442.73970635 -660 439 C-660 438.34 -660 437.68 -660 437 C-659.34 437 -658.68 437 -658 437 C-658 436.34 -658 435.68 -658 435 C-657.01 434.67 -656.02 434.34 -655 434 C-655.309375 433.38125 -655.61875 432.7625 -655.9375 432.125 C-656.625 430.75 -657.3125 429.375 -658 428 C-658.66 428 -659.32 428 -660 428 C-660 427.01 -660 426.02 -660 425 C-660.66 425 -661.32 425 -662 425 C-662.12503906 424.41992188 -662.25007812 423.83984375 -662.37890625 423.2421875 C-663.00204557 420.99261536 -663.87020601 419.19514759 -664.9375 417.125 C-670.38280477 405.06612508 -669.71768666 390.83455475 -668 378 C-678.10428924 376.05997647 -688.00657742 374.69067187 -698.3125 374.625 C-699.18865967 374.61146484 -700.06481934 374.59792969 -700.9675293 374.58398438 C-706.55185636 374.62292593 -711.58881059 375.01040388 -715.3515625 379.67578125 Z M-31 381 C-32.61573531 387.10022514 -32.00675401 393.49453875 -31.75 399.75 C-31.72292969 400.7709375 -31.69585938 401.791875 -31.66796875 402.84375 C-31.38861377 409.94477335 -30.08942144 416.22569867 -28 423 C-27.55858172 424.64478677 -27.12052188 426.2904828 -26.6875 427.9375 C-24.86578458 433.98096862 -21.92239153 439.42919114 -19 445 C-17.99628426 446.99813781 -16.99525787 448.99763595 -16 451 C-15.34 451 -14.68 451 -14 451 C-13.67 452.32 -13.34 453.64 -13 455 C-12.34 455 -11.68 455 -11 455 C-10.731875 455.639375 -10.46375 456.27875 -10.1875 456.9375 C-9.11332248 459.33131686 -9.11332248 459.33131686 -6 460 C-3.20395618 458.79560089 -3.20395618 458.79560089 -0.3125 457.0625 C0.68136719 456.49660156 1.67523437 455.93070313 2.69921875 455.34765625 C3.45847656 454.90292969 4.21773437 454.45820312 5 454 C5 453.34 5 452.68 5 452 C5.99 451.690625 5.99 451.690625 7 451.375 C11.11606263 449.48847129 14.4587703 446.79432021 18 444 C17.39096941 440.90694578 16.40131197 438.80360238 14.5625 436.25 C14.13066406 435.63640625 13.69882812 435.0228125 13.25390625 434.390625 C12.84011719 433.93171875 12.42632813 433.4728125 12 433 C11.34 433 10.68 433 10 433 C9.773125 432.030625 9.54625 431.06125 9.3125 430.0625 C7.96983671 425.27987457 5.49706687 421.27129859 3 417 C-3.6 417 -10.2 417 -17 417 C-17.47367652 414.36094512 -17.94385233 411.72120438 -18.39453125 409.078125 C-18.93319732 406.04672743 -18.93319732 406.04672743 -19.82421875 403.359375 C-20.59677828 400.75965087 -21.09245611 398.71644855 -21 396 C-19.50486683 393.39101404 -17.77801577 391.34343293 -15.76171875 389.1171875 C-13.31719711 386.17942536 -12.71004637 383.70801995 -12 380 C-17.54315173 378.5218262 -26.25281039 377.14092604 -31 381 Z M-451.75 380.4375 C-452.91982422 380.63956055 -452.91982422 380.63956055 -454.11328125 380.84570312 C-457.86823039 381.22777629 -457.86823039 381.22777629 -461 383 C-461.15655027 384.48638992 -461.25066943 385.97949127 -461.31640625 387.47265625 C-461.35830078 388.37177734 -461.40019531 389.27089844 -461.44335938 390.19726562 C-461.48267578 391.14279297 -461.52199219 392.08832031 -461.5625 393.0625 C-461.60568359 394.01189453 -461.64886719 394.96128906 -461.69335938 395.93945312 C-461.79979276 398.29281353 -461.90181008 400.64628354 -462 403 C-451.76246433 400.52540549 -441.78322167 397.95384088 -432 394 C-432.34933594 393.16855469 -432.69867188 392.33710937 -433.05859375 391.48046875 C-433.74115234 389.85044922 -433.74115234 389.85044922 -434.4375 388.1875 C-434.88996094 387.10855469 -435.34242188 386.02960938 -435.80859375 384.91796875 C-436.60375013 382.9704874 -437.33479648 380.99561057 -438 379 C-442.71371074 378.78316931 -447.13434271 379.60076617 -451.75 380.4375 Z M-620 387 C-621.0146239 388.8064655 -621.0146239 388.8064655 -621 391 C-619.75652756 393.81417448 -618.91942389 395.54028806 -616.125 396.9375 C-613.36637928 397.0186359 -611.47244615 396.16754401 -609 395 C-607.84850984 390.40920297 -607.84850984 390.40920297 -609.0625 386.0625 C-613.13858732 383.82722631 -616.27478191 384.51652127 -620 387 Z M131 388 C131.02102783 388.97187256 131.04205566 389.94374512 131.0637207 390.94506836 C131.15663788 398.36425345 131.00366367 405.33086647 129.1875 412.5625 C129.02185547 413.30306641 128.85621094 414.04363281 128.68554688 414.80664062 C127.6412138 419.24013011 126.08597572 422.92965769 124 427 C124 427.99 124 428.98 124 430 C123.34 430 122.68 430 122 430 C120.96588649 431.64571778 119.97283013 433.31732971 119 435 C117.65149531 436.74990784 116.27578887 438.47915785 114.875 440.1875 C112.1679489 443.41965051 112.1679489 443.41965051 110 447 C116.47704121 455.06413078 124.42114387 462.7853033 134 467 C142.74126422 464.26391323 148.86406022 451.59266365 153 444 C153.42925781 443.23429687 153.85851562 442.46859375 154.30078125 441.6796875 C162.34728428 426.5831524 167.17405994 408.13533267 165 391 C163.97747976 389.20135104 163.97747976 389.20135104 162 388 C158.70338429 387.58400923 158.70338429 387.58400923 154.92578125 387.70703125 C154.2419487 387.71127609 153.55811615 387.71552094 152.8535614 387.71989441 C150.67280439 387.73666647 148.49297691 387.77431343 146.3125 387.8125 C144.83269565 387.82754886 143.3528768 387.84123692 141.87304688 387.85351562 C138.24839664 387.88656431 134.62428906 387.93833554 131 388 Z M-523.58203125 390.90625 C-529.81844919 392.20545608 -536.09457343 393.03057241 -542.40820312 393.85546875 C-547.44098278 394.54125411 -552.15656675 395.46282283 -557 397 C-556.01 398.65 -555.02 400.3 -554 402 C-555.98 402.99 -555.98 402.99 -558 404 C-557.49396008 406.16874252 -557.00016187 407.99967627 -556 410 C-556.639375 410.103125 -557.27875 410.20625 -557.9375 410.3125 C-558.618125 410.539375 -559.29875 410.76625 -560 411 C-561.33304698 413.89186786 -561.33304698 413.89186786 -560.0625 416.1875 C-559.711875 416.785625 -559.36125 417.38375 -559 418 C-559.804375 418.12375 -560.60875 418.2475 -561.4375 418.375 C-562.283125 418.58125 -563.12875 418.7875 -564 419 C-564.33 419.66 -564.66 420.32 -565 421 C-564.10636395 423.60931266 -564.10636395 423.60931266 -563 426 C-563.928125 425.7215625 -563.928125 425.7215625 -564.875 425.4375 C-567.04160178 424.76313824 -567.04160178 424.76313824 -569 426 C-568.34414811 429.60992379 -568.34414811 429.60992379 -567 433 C-567.99 433.495 -567.99 433.495 -569 434 C-567.53956606 435.74975467 -567.53956606 435.74975467 -565 437 C-558.00014243 436.64349403 -551.86462489 434.91472037 -545.25 432.6875 C-534.11669976 428.94532388 -534.11669976 428.94532388 -529.8203125 428.10546875 C-526.48117103 427.39751018 -523.91137728 426.78315883 -521 425 C-518.52318836 420.85179469 -517.74856041 416.73399928 -517 412 C-516.67322266 410.30423828 -516.67322266 410.30423828 -516.33984375 408.57421875 C-515.23089439 402.32444456 -514.78514271 396.33828994 -515 390 C-518.20465188 390 -520.51647179 390.23444996 -523.58203125 390.90625 Z M61 394 C60.18129815 397.56206661 60.18129815 397.56206661 60 401 C60.66 401 61.32 401 62 401 C62.33 401.99 62.66 402.98 63 404 C64.98 404 66.96 404 69 404 C69.33 403.01 69.66 402.02 70 401 C70.66 401 71.32 401 72 401 C73.35813363 398.03287217 73.35813363 398.03287217 71.875 395.375 C70.20099866 392.83941116 70.20099866 392.83941116 67.5625 392.0625 C64.56003514 391.98926915 63.29722074 392.03095365 61 394 Z M-533.54296875 436.4609375 C-534.45240234 436.76773437 -535.36183594 437.07453125 -536.29882812 437.390625 C-537.25208984 437.71546875 -538.20535156 438.0403125 -539.1875 438.375 C-545.09455693 440.38070877 -550.98211787 442.35194929 -557 444 C-554.19116515 446.93237157 -551.28880919 449.4311214 -548 451.8125 C-546.7315625 452.75029297 -546.7315625 452.75029297 -545.4375 453.70703125 C-543.15849373 455.15898467 -543.15849373 455.15898467 -540.953125 455.00390625 C-538.15116225 453.56369739 -536.68343093 451.59549507 -534.75 449.125 C-533.69039062 447.79855469 -533.69039062 447.79855469 -532.609375 446.4453125 C-530.72511823 444.07023899 -530.72511823 444.07023899 -531 441 C-530.34 441 -529.68 441 -529 441 C-528.34 439.02 -527.68 437.04 -527 435 C-529.44898312 435 -531.2208162 435.67108352 -533.54296875 436.4609375 Z M-641 443 C-644.6207456 449.14339622 -647.47426031 455.33822369 -650 462 C-650.34417969 462.81339844 -650.68835938 463.62679688 -651.04296875 464.46484375 C-652.02931546 467.07765606 -652.61303053 469.56980643 -653.125 472.3125 C-653.29257812 473.19550781 -653.46015625 474.07851563 -653.6328125 474.98828125 C-653.75398437 475.65214844 -653.87515625 476.31601562 -654 477 C-636.98830441 488.17336219 -613.18811905 488.70539891 -593.60791016 485.43310547 C-585.31118381 483.60598167 -577.50912518 480.99447074 -570 477 C-570.64348342 471.0799525 -572.11352352 465.64273496 -574 460 C-574.31195312 459.06671875 -574.62390625 458.1334375 -574.9453125 457.171875 C-575.43644531 455.81835938 -575.43644531 455.81835938 -575.9375 454.4375 C-576.38416016 453.19806641 -576.38416016 453.19806641 -576.83984375 451.93359375 C-577.82532058 449.89725284 -577.82532058 449.89725284 -579.69140625 449.16015625 C-582.16552744 448.98851671 -584.37942619 449.3190994 -586.81787109 449.72021484 C-604.06170033 451.93116006 -623.36460009 451.07212214 -639 443 C-639.66 443 -640.32 443 -641 443 Z M32 454 C24.16870182 468.33151837 24.16870182 468.33151837 21 484 C33.69623391 489.54985075 45.8647778 494.71874011 60 494 C60 491.69 60 489.38 60 487 C61.65 487 63.3 487 65 487 C65 489.64 65 492.28 65 495 C73.9273414 494.77653714 82.53501896 494.16971658 91.25 492.125 C91.95181396 491.96354492 92.65362793 491.80208984 93.37670898 491.63574219 C97.3658254 490.63955116 100.59730198 489.3080316 104 487 C102.73807217 475.62604525 100.19354569 466.1799414 95 456 C93.98679687 456.34933594 92.97359375 456.69867187 91.9296875 457.05859375 C90.57820771 457.51847229 89.22664053 457.97809409 87.875 458.4375 C87.20984375 458.66759766 86.5446875 458.89769531 85.859375 459.13476562 C68.76777904 464.91574661 52.52605863 462.16316781 36.3984375 454.98828125 C34.12415026 453.87300766 34.12415026 453.87300766 32 454 Z " fill="#000000" transform="translate(780,227)"/>
</svg>
